<svg width="281" height="149" fill="none" xmlns="http://www.w3.org/2000/svg"><path d="M124.723 52.157c-19.2 4.4-73.666-27.834-98.5-44.5-31.5 5.5-33.5 128-12 139.5 17.2 9.2 86.167-31.5 118.5-53 131.2 20 153-19.667 147.5-42-8.833-3-31.9-10.1-53.5-14.5s-38.666-1.834-44.5 0c-14.833-16.167-48.4-45.9-64-35.5-47.874 31.916 30.5 44.5 6.5 50Z" fill="url(#a)"/><path d="M124.723 52.157c-19.2 4.4-73.666-27.834-98.5-44.5-31.5 5.5-33.5 128-12 139.5 17.2 9.2 86.167-31.5 118.5-53 131.2 20 153-19.667 147.5-42-8.833-3-31.9-10.1-53.5-14.5s-38.666-1.834-44.5 0c-14.833-16.167-48.4-45.9-64-35.5-47.874 31.916 30.5 44.5 6.5 50Z" fill="url(#b)"/><path d="M124.723 52.157c-19.2 4.4-73.666-27.834-98.5-44.5-31.5 5.5-33.5 128-12 139.5 17.2 9.2 86.167-31.5 118.5-53 131.2 20 153-19.667 147.5-42-8.833-3-31.9-10.1-53.5-14.5s-38.666-1.834-44.5 0c-14.833-16.167-48.4-45.9-64-35.5-47.874 31.916 30.5 44.5 6.5 50Z" fill="url(#c)" fill-opacity=".2"/><path d="m199.22 82.529 27.789-12.925.804-13.977-26.524-9.039c-14.428 13.994-7.391 29.791-2.069 35.94Z" fill="url(#d)"/><ellipse cx="252.723" cy="59.157" rx="14" ry="13" fill="url(#e)"/><ellipse cx="254.723" cy="59.157" rx="7" ry="8" fill="#000"/><ellipse cx="43.723" cy="37.157" rx="28" ry="9" transform="rotate(37.207 43.723 37.157)" fill="url(#f)"/><ellipse rx="33.609" ry="8.653" transform="scale(-1 1) rotate(37.207 -201.72 -27.557)" fill="url(#g)"/><ellipse rx="11.166" ry="9.242" transform="scale(-1 1) rotate(37.207 -164.072 -15.77)" fill="url(#h)"/><ellipse cx="74.031" cy="74.165" rx="8.628" ry="6.331" transform="rotate(37.207 74.031 74.165)" fill="url(#i)"/><ellipse cx="140.423" cy="18.416" rx="8.628" ry="6.331" transform="rotate(37.207 140.423 18.416)" fill="url(#j)"/><ellipse cx="47.313" cy="67.145" rx="11.764" ry="8.632" transform="rotate(37.207 47.313 67.145)" fill="url(#k)"/><ellipse cx="122.313" cy="27.145" rx="11.764" ry="8.632" transform="rotate(37.207 122.313 27.145)" fill="url(#l)"/><defs><radialGradient id="b" cx="0" cy="0" r="1" gradientUnits="userSpaceOnUse" gradientTransform="matrix(32.49993 71.50003 -135.29964 61.49968 129.223 14.157)"><stop stop-color="#6EDDE4"/><stop offset="1" stop-color="#fff" stop-opacity="0"/></radialGradient><radialGradient id="e" cx="0" cy="0" r="1" gradientUnits="userSpaceOnUse" gradientTransform="matrix(0 13 -14 0 252.723 59.157)"><stop offset=".281" stop-color="#D9D9D9" stop-opacity="0"/><stop offset="1" stop-color="#fff"/></radialGradient><radialGradient id="f" cx="0" cy="0" r="1" gradientUnits="userSpaceOnUse" gradientTransform="matrix(0 9 -28 0 43.723 37.157)"><stop offset=".422" stop-color="#019DB2"/><stop offset="1" stop-color="#019DB2" stop-opacity="0"/></radialGradient><radialGradient id="g" cx="0" cy="0" r="1" gradientUnits="userSpaceOnUse" gradientTransform="scale(33.6086 8.65278) rotate(90 0 1)"><stop offset=".422" stop-color="#019DB2"/><stop offset="1" stop-color="#019DB2" stop-opacity="0"/></radialGradient><radialGradient id="h" cx="0" cy="0" r="1" gradientUnits="userSpaceOnUse" gradientTransform="scale(11.166 9.24181) rotate(90 0 1)"><stop offset=".422" stop-color="#019DB2"/><stop offset="1" stop-color="#019DB2" stop-opacity="0"/></radialGradient><radialGradient id="i" cx="0" cy="0" r="1" gradientUnits="userSpaceOnUse" gradientTransform="matrix(0 6.33051 -8.62783 0 74.031 74.165)"><stop offset=".422" stop-color="#019DB2"/><stop offset="1" stop-color="#019DB2" stop-opacity="0"/></radialGradient><radialGradient id="j" cx="0" cy="0" r="1" gradientUnits="userSpaceOnUse" gradientTransform="matrix(0 6.33051 -8.62783 0 140.423 18.416)"><stop offset=".422" stop-color="#019DB2"/><stop offset="1" stop-color="#019DB2" stop-opacity="0"/></radialGradient><radialGradient id="k" cx="0" cy="0" r="1" gradientUnits="userSpaceOnUse" gradientTransform="matrix(0 8.63176 -11.7642 0 47.313 67.145)"><stop offset=".422" stop-color="#019DB2"/><stop offset="1" stop-color="#019DB2" stop-opacity="0"/></radialGradient><radialGradient id="l" cx="0" cy="0" r="1" gradientUnits="userSpaceOnUse" gradientTransform="matrix(0 8.63176 -11.7642 0 122.313 27.145)"><stop offset=".422" stop-color="#019DB2"/><stop offset="1" stop-color="#019DB2" stop-opacity="0"/></radialGradient><linearGradient id="a" x1="198.223" y1="52.657" x2="-.277" y2="113.157" gradientUnits="userSpaceOnUse"><stop stop-color="#fff"/><stop offset="1" stop-color="#01E0FE"/></linearGradient><linearGradient id="c" x1="280.723" y1="51.157" x2="283.723" y2="71.157" gradientUnits="userSpaceOnUse"><stop offset=".089" stop-color="#fff"/><stop offset="1" stop-color="#01E0FE"/></linearGradient><linearGradient id="d" x1="191.723" y1="68.657" x2="228.723" y2="68.157" gradientUnits="userSpaceOnUse"><stop stop-color="#01C9E5"/><stop offset="1" stop-color="#01C9E5" stop-opacity="0"/></linearGradient></defs></svg>