<svg width="242" height="239" fill="none" xmlns="http://www.w3.org/2000/svg"><path d="M242 124c0 63.513-51.487 115-115 115S12 187.513 12 124 63.487 9 127 9s115 51.487 115 115Z" fill="#018496"/><path d="m102.34 93.16-6.24-.18c-4.32 0-7.82.16-10.5.48-.2-.24-.3-.58-.3-1.02l.06-.48c2.4-.56 3.92-1.16 4.56-1.8.64-.64 1.02-2 1.14-4.08.12-2.08.18-4.24.18-6.48 0-2.28-.12-5.74-.36-10.38l-.48-9.84c-1.84 3.4-4.72 9.18-8.64 17.34-3.88 8.16-6.4 13.98-7.56 17.46h-1.68c-7.8-17.64-12.8-28.38-15-32.22L55 57.64c-.16 4.96-.24 11.02-.24 18.18 0 7.12.24 12.22.72 15.3.88.12 2.44.18 4.68.18.12.32.18.68.18 1.08 0 .36-.06.62-.18.78l-6.78-.18c-2.76 0-5.08.16-6.96.48-.2-.24-.3-.58-.3-1.02l.06-.48c1.96-.44 3.26-1.08 3.9-1.92.68-.84 1.12-1.94 1.32-3.3.96-6.84 1.52-17.62 1.68-32.34-1.08-1.36-2.26-2.32-3.54-2.88-.16-.04-1.28-.2-3.36-.48L46 50.2c0-.4.06-.72.18-.96l9.6-.24c.6 0 1.62 1.06 3.06 3.18 1.48 2.12 2.94 4.48 4.38 7.08 1.44 2.56 3.1 5.9 4.98 10.02 1.92 4.12 3.52 7.68 4.8 10.68 1.28 3 2 4.64 2.16 4.92.52-1.16 2.98-6.38 7.38-15.66 4.4-9.32 7.3-15.8 8.7-19.44 4.04 0 7.26-.18 9.66-.54.2.36.3.86.3 1.5-2 .44-3.34 1.1-4.02 1.98-.68.88-1.06 1.82-1.14 2.82-.08 1-.12 2.88-.12 5.64s.12 7.44.36 14.04c.28 6.6.7 11.9 1.26 15.9.76.12 2.36.18 4.8.18.12.28.18.6.18.96s-.06.66-.18.9Zm26.019-22.02-.18 14.64c0 2.92.94 4.38 2.82 4.38l2.16-.06c.16.2.24.52.24.96l-.12.66c-3.08.56-5.28 1.38-6.6 2.46-.88-.24-1.64-.78-2.28-1.62-.6-.88-.94-1.8-1.02-2.76-3.2 1.96-6.38 3.42-9.54 4.38-1.36 0-2.76-.76-4.2-2.28-1.44-1.56-2.16-3.5-2.16-5.82 0-1.16.26-2.2.78-3.12.52-.96 1.14-1.62 1.86-1.98 2.96-1.48 7.36-2.78 13.2-3.9v-5.7c0-2.2-.36-3.84-1.08-4.92-.68-1.08-1.52-1.62-2.52-1.62-.96 0-2 .18-3.12.54-1.12.32-1.92.96-2.4 1.92-.44.96-.66 2.32-.66 4.08 0 .16-.28.34-.84.54-.52.16-1.2.24-2.04.24-.8 0-1.36-.18-1.68-.54-.28-.4-.42-.98-.42-1.74 0-1.44 1.04-3 3.12-4.68.48-.32 1.88-.86 4.2-1.62 2.36-.76 3.72-1.14 4.08-1.14 2.88 0 5 .84 6.36 2.52 1.36 1.68 2.04 3.74 2.04 6.18Zm-15.54 14.64c0 .96.38 2 1.14 3.12.76 1.12 1.62 1.68 2.58 1.68 1 0 2.14-.34 3.42-1.02 1.28-.68 2.34-1.4 3.18-2.16.12-2.36.18-5.08.18-8.16-3.36.44-6.32 1.4-8.88 2.88-1.08.52-1.62 1.74-1.62 3.66Zm32.65-5.7c0 6.64 1.14 9.96 3.42 9.96 1.68 0 3.86-.56 6.54-1.68.6.2.9.76.9 1.68-2.92 1.56-6.28 2.94-10.08 4.14-1.88 0-3.32-.96-4.32-2.88-.96-1.92-1.44-4.5-1.44-7.74V69.64c0-2.36-.14-3.54-.42-3.54l-4.44.06c-.28-.08-.42-.28-.42-.6.2-.4.38-1.12.54-2.16h4.26c.32 0 .48-.7.48-2.1l-.06-5.1c1.48-.6 3-1.84 4.56-3.72.48 0 .84.12 1.08.36-.36 4.2-.54 7.72-.54 10.56 2.92 0 5.8-.14 8.64-.42.28.16.42.4.42.72-.24.4-.44 1.14-.6 2.22l-8.52.12v14.04Zm39.741-18.06c.36.08.66.32.9.72-.36 2.72-.54 7.2-.54 13.44l.06 8.58c0 3.6.9 5.4 2.7 5.4l2.16-.06c.16.28.24.6.24.96l-.06.66c-1.96.32-3.36.7-4.2 1.14l-1.56.72c-.2.12-.5.32-.9.6-.88-.32-1.62-1.02-2.22-2.1-.6-1.12-.94-2.24-1.02-3.36-3.4 2.12-7.3 3.94-11.7 5.46-2.56 0-4.48-.94-5.76-2.82-1.24-1.92-1.86-4.52-1.86-7.8V72.1c0-2.72-.12-4.44-.36-5.16-.24-.76-.94-1.26-2.1-1.5l-1.98-.24c-.12-.24-.18-.5-.18-.78l.18-.72c.68-.12 2.22-.38 4.62-.78l4.26-.9c.32.08.6.32.84.72-.32 2.2-.48 7.98-.48 17.34 0 6.56 1.76 9.84 5.28 9.84 1.24 0 2.48-.22 3.72-.66 1.28-.44 2.24-.86 2.88-1.26.64-.44 1.46-1.04 2.46-1.8.12-2.64.18-4.54.18-5.7v-7.26c0-2.44-.12-4.14-.36-5.1-.2-.96-.52-1.6-.96-1.92-.4-.36-.96-.62-1.68-.78l-1.98-.24-.18-.78.18-.72c.4-.08 1.12-.18 2.16-.3 1.08-.12 2.5-.36 4.26-.72 1.76-.36 2.76-.58 3-.66ZM58.849 133.6l9.12.18h7.68c4.88 0 8.72 1.04 11.52 3.12 2.8 2.08 4.2 5.34 4.2 9.78 0 4.4-1.5 7.72-4.5 9.96-3 2.24-6.92 3.36-11.76 3.36-1.48 0-2.6-.02-3.36-.06-.2-.24-.3-.58-.3-1.02l.3-1.2c.52.04 1.56.06 3.12.06 3.2 0 5.86-.94 7.98-2.82 2.16-1.92 3.24-4.44 3.24-7.56 0-3.16-.96-5.86-2.88-8.1-1.88-2.28-4.22-3.42-7.02-3.42s-4.94.08-6.42.24c-.24.68-.42 2.18-.54 4.5-.12 2.32-.18 8.54-.18 18.66v7.38c0 3.28.1 5.98.3 8.1 1.88.24 4.44.36 7.68.36.16.4.24.8.24 1.2 0 .36-.08.64-.24.84l-10.38-.18c-3.04 0-5.82.16-8.34.48-.2-.24-.3-.58-.3-1.02l.06-.48c2.08-.48 3.44-1.22 4.08-2.22.52-.8.86-1.8 1.02-3 .48-3.64.72-8.56.72-14.76 0-13.24-.36-19.98-1.08-20.22-.76-.2-2.08-.3-3.96-.3a3.5 3.5 0 0 1-.12-.96c0-.36.04-.66.12-.9Zm51.754 43.56-5.4-.18c-2.8 0-5.44.16-7.92.48-.24-.32-.36-.66-.36-1.02l.12-.48c1.72-.4 2.88-1.02 3.48-1.86.44-.64.78-1.4 1.02-2.28.24-.92.36-3.52.36-7.8v-5.76c0-2.48-.12-4.2-.36-5.16-.2-.96-.52-1.6-.96-1.92-.44-.32-1.02-.52-1.74-.6l-2.22-.18c-.12-.16-.18-.42-.18-.78l.18-.78c2.08-.44 3.76-.88 5.04-1.32 1.32-.48 2.86-1.16 4.62-2.04.44 0 .74.24.9.72-.48 2.72-.72 9.2-.72 19.44 0 1.84.06 3.88.18 6.12.16 2.2.36 3.32.6 3.36.6.12 1.72.18 3.36.18.12.28.18.6.18.96s-.06.66-.18.9Zm-5.64-38.52c-1.44-1-2.46-2.32-3.06-3.96.48-.56 1.12-1.14 1.92-1.74.84-.64 1.56-1.08 2.16-1.32 1.52 1.12 2.5 2.46 2.94 4.02-1.12 1.44-2.44 2.44-3.96 3Zm14.363 8.76 5.16-.18c.08.2.12.5.12.9l-.12.96c-1.24 0-2.12.04-2.64.12.36 2.44 1.32 5.54 2.88 9.3l5.82 14.4 5.22-13.38c1.76-4.52 2.76-7.88 3-10.08a40.19 40.19 0 0 0-4.44-.24c-.16-.24-.24-.52-.24-.84 0-.32.04-.64.12-.96h5.88c1.84 0 3.52-.12 5.04-.36.32.52.48 1.04.48 1.56-1 .44-1.72.88-2.16 1.32-1.08 1.16-2.26 3.22-3.54 6.18l-8.7 20.88c-.52 1.24-1.36 3.38-2.52 6.42-1.16 3.08-1.98 5.22-2.46 6.42-.44 1.2-.86 2.32-1.26 3.36-.4 1.08-.86 2.2-1.38 3.36-1.08 2.48-1.94 3.72-2.58 3.72-.2 0-.62-.12-1.26-.36-1.72-.6-3.66-1.14-5.82-1.62 0-.8.18-1.44.54-1.92 1.44.24 2.22.36 2.34.36 1.16 0 2.64-1.36 4.44-4.08 1.84-2.68 3.26-5.34 4.26-7.98l2.16-5.76-9.78-24c-1-2.52-1.92-4.22-2.76-5.1-.52-.64-1.3-1.12-2.34-1.44 0-.72.1-1.24.3-1.56 2.64.4 4.72.6 6.24.6Zm58.351 14.94c0 8.88-5.16 14.16-15.48 15.84-4.24 0-7.82-1.5-10.74-4.5-2.88-3.04-4.32-6.82-4.32-11.34 0-8.96 5.18-14.26 15.54-15.9 4.2 0 7.74 1.54 10.62 4.62 2.92 3.08 4.38 6.84 4.38 11.28Zm-14.16 13.26c5.76 0 8.64-3.68 8.64-11.04 0-4.16-.96-7.8-2.88-10.92s-4.46-4.68-7.62-4.68-5.46 1.02-6.9 3.06c-1.4 2-2.1 4.88-2.1 8.64 0 3.72.98 7.14 2.94 10.26s4.6 4.68 7.92 4.68Z" fill="#fff"/><circle cx="116" cy="116" r="114" stroke="#fff" stroke-width="4"/></svg>