<svg width="345" height="189" fill="none" xmlns="http://www.w3.org/2000/svg"><path d="M291.77 42.464c29.922 8.022 30.912 32.477 21.92 30.978-5.878-.98-19.219-17.526-21.92-30.978Z" fill="#E6FCFF"/><path d="M265.19 76.942c-1.167-14.167 2.5-40.9 26.5-34.5 30 8 31 32.5 22 31s-35.5-39.5-14.5-47c16.8-6 36 8.167 43.5 16" stroke="#01B3CB" stroke-width="6"/><path d="M283 94.5c0 24.768-15.193 47.57-40.538 64.319C217.141 175.552 181.984 186 143 186s-74.14-10.448-99.462-27.181C18.193 142.07 3 119.268 3 94.5s15.192-47.57 40.538-64.319C68.86 13.448 104.016 3 143 3s74.141 10.448 99.462 27.181C267.807 46.931 283 69.732 283 94.5Z" fill="url(#a)" stroke="#01B3CB" stroke-width="6"/><defs><radialGradient id="a" cx="0" cy="0" r="1" gradientUnits="userSpaceOnUse" gradientTransform="scale(143 94.5) rotate(90 0 1)"><stop stop-color="#E6FCFF"/><stop offset=".802" stop-color="#E6FCFF"/><stop offset="1" stop-color="#01C9E5"/></radialGradient></defs></svg>