<svg width="384" height="329" fill="none" xmlns="http://www.w3.org/2000/svg"><path d="M340.418 206.418c0 65.292-62.215 119-140 119-77.784 0-140-53.708-140-119 0-65.293 62.216-119 140-119 77.785 0 140 53.707 140 119Z" fill="url(#a)" stroke="#01B3CB" stroke-width="6"/><path d="m93.259 183.428-76.598-32.613c-.856-.365-.91-1.497-.086-1.798l124.862-45.738c.845-.309 1.739.567 1.385 1.359l-32.678 73.07c-2.709 6.057-10.163 8.582-16.885 5.72Z" fill="url(#b)" stroke="#01B3CB" stroke-width="6"/><path d="m293.395 175.685-28.825-72.929c-.315-.797.587-1.637 1.416-1.317l103.599 40.001c.739.286.768 1.273.049 1.714l-60.12 36.897c-6.067 3.723-13.744 1.643-16.119-4.366Z" fill="url(#c)" stroke="#01B3CB" stroke-width="6"/><ellipse cx="144.001" cy="208.418" rx="7" ry="16" fill="url(#d)"/><ellipse cx="256.001" cy="208.418" rx="7" ry="16" fill="url(#e)"/><path d="M252.083 269.418c0 8.828-5.447 17.142-14.921 23.366-9.452 6.211-22.657 10.134-37.37 10.134-14.713 0-27.918-3.923-37.37-10.134-9.474-6.224-14.921-14.538-14.921-23.366s5.447-17.142 14.921-23.367c9.452-6.21 22.657-10.133 37.37-10.133 14.713 0 27.918 3.923 37.37 10.133 9.474 6.225 14.921 14.539 14.921 23.367Z" fill="url(#f)" stroke="#01B3CB" stroke-width="5"/><path d="M179.001 269c0 4.33-.66 8.206-1.694 10.963-.518 1.382-1.111 2.431-1.719 3.116-.609.687-1.147.921-1.587.921-.44 0-.979-.234-1.587-.921-.608-.685-1.201-1.734-1.719-3.116-1.034-2.757-1.694-6.633-1.694-10.963 0-4.33.66-8.206 1.694-10.963.518-1.382 1.111-2.431 1.719-3.116.608-.687 1.147-.921 1.587-.921.44 0 .978.234 1.587.921.608.685 1.201 1.734 1.719 3.116 1.034 2.757 1.694 6.633 1.694 10.963Zm52 0c0 4.33-.66 8.206-1.694 10.963-.518 1.382-1.111 2.431-1.719 3.116-.609.687-1.147.921-1.587.921-.44 0-.979-.234-1.587-.921-.608-.685-1.201-1.734-1.719-3.116-1.034-2.757-1.694-6.633-1.694-10.963 0-4.33.66-8.206 1.694-10.963.518-1.382 1.111-2.431 1.719-3.116.608-.687 1.147-.921 1.587-.921.44 0 .978.234 1.587.921.608.685 1.201 1.734 1.719 3.116 1.034 2.757 1.694 6.633 1.694 10.963Z" fill="#E6FCFF" stroke="#01B3CB" stroke-width="2"/><circle cx="146.5" cy="200.5" r="3.5" fill="url(#g)"/><circle cx="258.5" cy="200.5" r="3.5" fill="url(#h)"/><path d="M83.775 189c-8.834-10.8 5.521-35.833 13.803-47H110c-9.637 12-26.028 37.7-14.493 44.5 11.536 6.8 6.187 23.833 2.07 31.5h-11.04c2.76-5.167 6.073-18.2-2.761-29Z" fill="url(#i)" stroke="#01B3CB" stroke-width="4"/><path d="M128 168c4.8-6 4-13.167 3-16h11c-.167 3.833-.4 12.4 0 16 .4 3.6-9.167 22.5-14 31.5h-16c3.333-8 11.2-25.5 16-31.5Z" fill="url(#j)" stroke="#01B3CB" stroke-width="4"/><path d="M48.5 175.5c-.8-12 16-34.667 24.5-44.5l13 6c-7.5 11.667-23 35.7-25 38.5-2.5 3.5 16 20.5 14.5 26s-9.5 19-12 25.5c-2 5.2 5.5 10.167 9.5 12l-14.5 6.5c-14.5-14.5-10-25 0-38s-9-17-10-32Z" fill="url(#k)" stroke="#01B3CB" stroke-width="4"/><path d="M299.787 83.94c.971 5.385-1.056 11.244-5.971 17.316-4.912 6.068-12.588 12.189-22.524 17.988-19.861 11.593-48.458 21.734-81.078 27.616-32.621 5.883-62.959 6.369-85.618 2.443-11.336-1.963-20.666-5.017-27.388-8.987-6.727-3.973-10.672-8.755-11.644-14.141-.99-5.493.964-13.999 5.76-24.059 4.76-9.986 12.2-21.255 21.826-32.172 19.264-21.85 47.117-42.11 79.43-47.936 32.292-5.823 63.081 3.844 86.374 17.985 11.641 7.067 21.369 15.228 28.438 23.074 7.109 7.89 11.391 15.307 12.395 20.872Z" fill="url(#l)" stroke="#01B3CB" stroke-width="3"/><path d="m66 115.5 19.873 14.077a4 4 0 0 0 6.02-1.767l7.245-17.936a4 4 0 0 0-1.868-5.049l-7.02-3.64a4 4 0 0 0-5.216 1.404l-2.527 3.971a4 4 0 0 0 1.772 5.812L88 114m17 23.5 16.5 1.5 12.138 1.103A4 4 0 0 0 138 136.12V118a4 4 0 0 0-4-4h-15.5a4 4 0 0 0-4 4v2a4 4 0 0 0 4 4h8.5m36.5 16.5 35.038-7.187a4.001 4.001 0 0 0 3.106-4.766l-4.773-22.027a4 4 0 0 0-4.865-3.037l-24.709 6.082a4 4 0 0 0-2.949 4.752l1.267 5.703a4 4 0 0 0 4.848 3.019L183 120m40.5 7.5 34.111-15.062a4 4 0 0 0 1.693-5.907l-13.446-19.796a4.001 4.001 0 0 0-4.894-1.425l-17.872 7.71a4 4 0 0 0-1.65 6.025l3.065 4.215a4.001 4.001 0 0 0 5.024 1.225L239.5 99.5m43 0 10.831-23.468a4 4 0 0 0-.803-4.504l-13.324-13.324a4 4 0 0 0-5.986.373l-8.754 11.256a4 4 0 0 0 .711 5.62l4.52 3.493a4 4 0 0 0 5.714-.858L279 73" stroke="#01B3CB" stroke-width="4" stroke-linejoin="round"/><g filter="url(#m)"><path d="m285.873 77 7.316 3.663 7.581-.808 5.708 5.96 7.729 2.169 3.23 7.349 6.7 4.816.262 7.62 4.651 6.731-2.747 6.731 1.894 7.62-5.338 4.816-1.152 7.349-7.115 2.17-4.022 5.959-7.81-.808-6.279 3.663-7.316-3.663-7.582.808-5.707-5.959-7.729-2.17-3.23-7.349-6.701-4.816-.261-7.62-4.651-6.731 2.747-6.731-1.894-7.62 5.338-4.816 1.151-7.35 7.116-2.169 4.021-5.96 7.811.809L285.873 77Z" fill="url(#n)"/><path d="m292.479 82.402.589.295.61-.065 6.516-.695 4.904 5.122.46.48.622.175 6.642 1.864 2.776 6.315.26.592.54.388 5.758 4.139.224 6.548.021.614.375.542 3.997 5.784-2.361 5.784-.221.542.152.614 1.628 6.548-4.587 4.139-.43.388-.093.592-.989 6.315-6.115 1.864-.573.175-.324.48-3.456 5.122-6.711-.695-.629-.065-.506.295-5.396 3.147-6.287-3.147-.589-.295-.611.065-6.515.695-4.905-5.122-.459-.48-.622-.175-6.643-1.864-2.776-6.315-.26-.592-.539-.388-5.758-4.139-.225-6.548-.021-.614-.374-.542-3.997-5.784 2.361-5.784.221-.542-.153-.614-1.627-6.548 4.587-4.139.43-.388.092-.592.99-6.315 6.115-1.864.573-.175.323-.48 3.456-5.121 6.712.694.629.065.506-.295 5.396-3.147 6.287 3.147Z" stroke="#01B3CB" stroke-width="4"/></g><path d="M286.901 136.313c-9.121-8.348-21.791-27.667-11.222-38.137 16.443-16.288 34.654.438 39.383 11.399 4.162 9.645-5.811 31.254-19.075 18.896-24.758-23.067 7.582-28.951 6.287-13.761" stroke="#01B3CB" stroke-width="4"/><defs><linearGradient id="b" x1="107.02" y1="192.388" x2="82.952" y2="83.084" gradientUnits="userSpaceOnUse"><stop stop-color="#E6FCFF"/><stop offset=".51" stop-color="#E6FCFF"/><stop offset="1" stop-color="#01E0FE"/></linearGradient><linearGradient id="c" x1="296.278" y1="191.517" x2="320.904" y2="79.676" gradientUnits="userSpaceOnUse"><stop stop-color="#E6FCFF"/><stop offset=".51" stop-color="#E6FCFF"/><stop offset="1" stop-color="#01E0FE"/></linearGradient><linearGradient id="d" x1="144.001" y1="192.418" x2="144.001" y2="224.418" gradientUnits="userSpaceOnUse"><stop stop-color="#01B3CB"/><stop offset="1" stop-color="#019DB2"/></linearGradient><linearGradient id="e" x1="256.001" y1="192.418" x2="256.001" y2="224.418" gradientUnits="userSpaceOnUse"><stop stop-color="#01B3CB"/><stop offset="1" stop-color="#019DB2"/></linearGradient><linearGradient id="i" x1="95.5" y1="142" x2="95.5" y2="218" gradientUnits="userSpaceOnUse"><stop stop-color="#01E0FE"/><stop offset=".24" stop-color="#fff"/></linearGradient><linearGradient id="j" x1="127.006" y1="152" x2="127.006" y2="199.5" gradientUnits="userSpaceOnUse"><stop stop-color="#01E0FE"/><stop offset=".24" stop-color="#fff"/></linearGradient><linearGradient id="k" x1="67.236" y1="131" x2="67.236" y2="245.5" gradientUnits="userSpaceOnUse"><stop stop-color="#01E0FE"/><stop offset=".24" stop-color="#fff"/></linearGradient><radialGradient id="a" cx="0" cy="0" r="1" gradientUnits="userSpaceOnUse" gradientTransform="rotate(90 -3 203.418) scale(122 143)"><stop stop-color="#E6FCFF"/><stop offset=".844" stop-color="#E6FCFF"/><stop offset="1" stop-color="#01C9E5"/></radialGradient><radialGradient id="f" cx="0" cy="0" r="1" gradientUnits="userSpaceOnUse" gradientTransform="matrix(0 36 -54.7911 0 199.792 269.418)"><stop offset=".766" stop-color="#01E0FE"/><stop offset="1" stop-color="#01E0FE" stop-opacity="0"/></radialGradient><radialGradient id="g" cx="0" cy="0" r="1" gradientUnits="userSpaceOnUse" gradientTransform="rotate(90 -27 173.5) scale(3.5)"><stop offset=".552" stop-color="#fff"/><stop offset="1" stop-color="#fff" stop-opacity="0"/></radialGradient><radialGradient id="h" cx="0" cy="0" r="1" gradientUnits="userSpaceOnUse" gradientTransform="rotate(90 29 229.5) scale(3.5)"><stop offset=".552" stop-color="#fff"/><stop offset="1" stop-color="#fff" stop-opacity="0"/></radialGradient><radialGradient id="l" cx="0" cy="0" r="1" gradientUnits="userSpaceOnUse" gradientTransform="matrix(7.47998 68.33665 -127.66748 13.9742 183 80)"><stop offset=".698" stop-color="#fff"/><stop offset="1" stop-color="#6EDDE4"/></radialGradient><radialGradient id="n" cx="0" cy="0" r="1" gradientUnits="userSpaceOnUse" gradientTransform="matrix(5.30366 37.5 -37.13048 5.2514 291.177 114.5)"><stop offset=".719" stop-color="#fff"/><stop offset="1" stop-color="#6EDDE4"/></radialGradient><filter id="m" x="249.304" y="77" width="83.746" height="83" filterUnits="userSpaceOnUse" color-interpolation-filters="sRGB"><feFlood flood-opacity="0" result="BackgroundImageFix"/><feColorMatrix in="SourceAlpha" values="0 0 0 0 0 0 0 0 0 0 0 0 0 0 0 0 0 0 127 0" result="hardAlpha"/><feOffset dy="4"/><feGaussianBlur stdDeviation="2"/><feComposite in2="hardAlpha" operator="out"/><feColorMatrix values="0 0 0 0 0.431875 0 0 0 0 0.86545 0 0 0 0 0.893125 0 0 0 1 0"/><feBlend in2="BackgroundImageFix" result="effect1_dropShadow_14_779"/><feBlend in="SourceGraphic" in2="effect1_dropShadow_14_779" result="shape"/></filter></defs></svg>