<svg width="182" height="78" fill="none" xmlns="http://www.w3.org/2000/svg"><path transform="matrix(.9041 .42733 -.57632 .81722 102.59 0)" fill="url(#a)" d="M0 0h25.12v18.62H0z"/><path transform="matrix(.9041 -.42733 -.57632 -.81722 111.174 77.96)" fill="url(#b)" d="M0 0h25.12v18.62H0z"/><path d="M133.924 21.788 182 13.002l-14.165 26.005L182 65.012l-48.076-8.083V21.788Z" fill="url(#c)"/><path d="M153.67 33.385c0 15.914-39.295 34.79-86.708 34.79S0 49.299 0 33.385C0 17.47 19.55 10.543 66.962 10.543c47.413 0 86.708 6.927 86.708 22.842Z" fill="url(#d)"/><path d="M153.67 33.385c0 15.914-39.295 34.79-86.708 34.79S0 49.299 0 33.385C0 17.47 19.55 10.543 66.962 10.543c47.413 0 86.708 6.927 86.708 22.842Z" fill="url(#e)"/><path d="M154 27.032c0 5.24-34.4 9.488-76.834 9.488-42.435 0-76.862.566-76.862-4.674 0-2.296 1.482-14.066 12.475-15.708 14.093-2.104 40.547 1.406 64.387 1.406 42.434 0 76.834 4.248 76.834 9.488Z" fill="url(#f)"/><path d="m70.396 24.6-23.18 10.19v9.84l23.18 5.27c11.676-10.4 4.865-21.201 0-25.3Z" fill="#F2F2F2" fill-opacity=".5"/><ellipse cx="31.764" cy="27.762" rx="12.019" ry="11.597" fill="url(#g)"/><ellipse cx="33.481" cy="27.762" rx="6.009" ry="7.38" fill="#000"/><defs><linearGradient id="a" x1="12.56" y1="0" x2="12.56" y2="18.62" gradientUnits="userSpaceOnUse"><stop stop-color="#fff"/><stop offset="1" stop-color="#fff" stop-opacity="0"/></linearGradient><linearGradient id="b" x1="12.56" y1="0" x2="12.56" y2="18.62" gradientUnits="userSpaceOnUse"><stop stop-color="#fff"/><stop offset="1" stop-color="#fff" stop-opacity="0"/></linearGradient><linearGradient id="c" x1="157.962" y1="13.002" x2="157.962" y2="65.012" gradientUnits="userSpaceOnUse"><stop stop-color="#fff"/><stop offset="1" stop-color="#F2F2F2"/></linearGradient><linearGradient id="d" x1="66.962" y1="10.543" x2="58.831" y2="68.718" gradientUnits="userSpaceOnUse"><stop stop-color="#fff"/><stop offset=".557" stop-color="#01E0FE"/><stop offset=".828" stop-color="#fff"/><stop offset="1" stop-color="#fff"/></linearGradient><linearGradient id="f" x1="76.835" y1="20.382" x2="76.835" y2="39.358" gradientUnits="userSpaceOnUse"><stop stop-color="#6EDDE4"/><stop offset=".62" stop-color="#fff"/><stop offset=".88" stop-color="#01E0FE"/><stop offset="1" stop-color="#01E0FE"/></linearGradient><radialGradient id="e" cx="0" cy="0" r="1" gradientUnits="userSpaceOnUse" gradientTransform="rotate(-131.465 79.33 -4.474) scale(22.0406 50.272)"><stop stop-color="#fff"/><stop offset="1" stop-color="#fff" stop-opacity="0"/></radialGradient><radialGradient id="g" cx="0" cy="0" r="1" gradientUnits="userSpaceOnUse" gradientTransform="matrix(0 11.5967 -12.0189 0 31.764 27.762)"><stop offset=".281" stop-color="#D9D9D9" stop-opacity="0"/><stop offset="1" stop-color="#fff"/></radialGradient></defs></svg>