<svg width="212" height="111" fill="none" xmlns="http://www.w3.org/2000/svg"><path transform="rotate(30 119.5 0)" fill="url(#a)" d="M119.5 0h30.547v25H119.5z"/><path transform="scale(1 -1) rotate(30 271.737 186.188)" fill="url(#b)" d="M0 0h30.547v25H0z"/><path d="m156 31 56-12.5-16.5 37 16.5 37L156 81V31Z" fill="url(#c)"/><path d="M179 47.5C179 70.144 133.228 97 78 97S0 70.144 0 47.5 22.771 15 78 15c55.228 0 101 9.856 101 32.5Z" fill="url(#d)"/><path d="M179 47.5C179 70.144 133.228 97 78 97S0 70.144 0 47.5 22.771 15 78 15c55.228 0 101 9.856 101 32.5Z" fill="url(#e)"/><path d="M179.385 38.462c0 7.456-40.07 13.5-89.5 13.5s-89.53.805-89.53-6.651c0-3.267 1.725-20.014 14.53-22.349 16.416-2.994 47.231 2 75 2 49.43 0 89.5 6.044 89.5 13.5Z" fill="url(#f)"/><path d="M82 35 55 49.5v14L82 71c13.6-14.8 5.667-30.167 0-36Z" fill="#F2F2F2" fill-opacity=".5"/><ellipse cx="37" cy="39.5" rx="14" ry="16.5" fill="url(#g)"/><ellipse cx="39" cy="39.5" rx="7" ry="10.5" fill="#000"/><defs><linearGradient id="a" x1="134.774" y1="0" x2="134.774" y2="25" gradientUnits="userSpaceOnUse"><stop stop-color="#fff"/><stop offset="1" stop-color="#fff" stop-opacity="0"/></linearGradient><linearGradient id="b" x1="15.274" y1="0" x2="15.274" y2="25" gradientUnits="userSpaceOnUse"><stop stop-color="#fff"/><stop offset="1" stop-color="#fff" stop-opacity="0"/></linearGradient><linearGradient id="c" x1="184" y1="18.5" x2="184" y2="92.5" gradientUnits="userSpaceOnUse"><stop stop-color="#fff"/><stop offset="1" stop-color="#F2F2F2"/></linearGradient><linearGradient id="d" x1="78" y1="15" x2="64" y2="97" gradientUnits="userSpaceOnUse"><stop stop-color="#fff"/><stop offset=".391" stop-color="#D9D9D9"/><stop offset=".567" stop-color="#FA3838"/><stop offset=".906" stop-color="#fff"/><stop offset="1" stop-color="#fff"/></linearGradient><linearGradient id="f" x1="89.501" y1="29" x2="89.501" y2="56" gradientUnits="userSpaceOnUse"><stop stop-color="#6EDDE4"/><stop offset=".62" stop-color="#6EDDE4"/><stop offset=".88" stop-color="#D9D9D9"/><stop offset="1" stop-color="#D9D9D9"/></linearGradient><radialGradient id="e" cx="0" cy="0" r="1" gradientUnits="userSpaceOnUse" gradientTransform="matrix(-16.99994 -23.50003 51.29888 -37.10964 157.5 74)"><stop stop-color="#FA3838"/><stop offset="1" stop-color="#FA3838" stop-opacity="0"/></radialGradient><radialGradient id="g" cx="0" cy="0" r="1" gradientUnits="userSpaceOnUse" gradientTransform="matrix(0 16.5 -14 0 37 39.5)"><stop offset=".281" stop-color="#D9D9D9" stop-opacity="0"/><stop offset="1" stop-color="#fff"/></radialGradient></defs></svg>