<svg width="685" height="512" fill="none" xmlns="http://www.w3.org/2000/svg"><g clip-path="url(#a)"><ellipse cx="129.537" cy="277.867" rx="14.209" ry="59.203" transform="rotate(-39.811 129.537 277.867)" fill="#fff" fill-opacity=".1"/><ellipse cx="170.019" cy="255.52" rx="14.209" ry="59.203" transform="rotate(-17.65 170.019 255.52)" fill="#fff" fill-opacity=".1"/><ellipse cx="216.311" cy="253.191" rx="14.209" ry="59.203" transform="rotate(14.587 216.311 253.191)" fill="#fff" fill-opacity=".1"/><ellipse cx="255.31" cy="278.073" rx="14.209" ry="59.203" transform="rotate(48.638 255.31 278.073)" fill="#fff" fill-opacity=".1"/><ellipse cx="279.309" cy="317.944" rx="14.209" ry="59.203" transform="rotate(67.215 279.309 317.944)" fill="#fff" fill-opacity=".1"/><ellipse rx="12.917" ry="63.093" transform="matrix(.75494 -.6558 .92017 .39151 96.225 404.57)" fill="#fff" fill-opacity=".1"/><ellipse rx="15.348" ry="52.796" transform="matrix(.93084 -.36543 .7281 .68547 135.97 381.153)" fill="#fff" fill-opacity=".1"/><ellipse rx="17.006" ry="43.085" transform="matrix(.99998 -.00653 .01766 .99984 188.708 370.685)" fill="#fff" fill-opacity=".1"/><ellipse rx="15.293" ry="53.075" transform="matrix(.92802 .37252 -.73566 .67735 241.564 380.716)" fill="#fff" fill-opacity=".1"/><ellipse rx="13.265" ry="61.824" transform="matrix(.78908 .61429 -.90336 .42888 281.797 404.133)" fill="#fff" fill-opacity=".1"/><ellipse rx="15.022" ry="73.375" transform="matrix(.75494 -.6558 .92017 .39151 78.858 503.172)" fill="#fff" fill-opacity=".1"/><ellipse rx="17.85" ry="61.4" transform="matrix(.93084 -.36543 .7281 .68547 125.08 475.939)" fill="#fff" fill-opacity=".1"/><ellipse rx="19.778" ry="50.106" transform="matrix(.99998 -.00653 .01766 .99984 186.412 463.765)" fill="#fff" fill-opacity=".1"/><ellipse rx="17.785" ry="61.725" transform="matrix(.92802 .37252 -.73566 .67735 247.881 475.43)" fill="#fff" fill-opacity=".1"/><ellipse rx="15.427" ry="71.899" transform="matrix(.78908 .61429 -.90336 .42888 294.671 502.664)" fill="#fff" fill-opacity=".1"/><ellipse rx="11.115" ry="43.822" transform="matrix(.74396 -.66823 .54772 .83666 187.354 176.736)" fill="#fff" fill-opacity=".1"/><ellipse rx="10.455" ry="46.554" transform="matrix(.94028 -.34041 .19833 .98014 217.326 158.423)" fill="#fff" fill-opacity=".1"/><ellipse rx="9.91" ry="48.579" transform="matrix(.95833 .28567 -.28902 .95732 250.178 156.304)" fill="#fff" fill-opacity=".1"/><ellipse rx="10.472" ry="46.488" transform="matrix(.57125 .82078 -.72687 .68677 276.213 176.273)" fill="#fff" fill-opacity=".1"/><ellipse rx="11.029" ry="44.195" transform="matrix(.27988 .96003 -.90443 .42662 290.732 208.464)" fill="#fff" fill-opacity=".1"/><ellipse rx="9.355" ry="36.486" transform="matrix(-.68077 -.66869 -.6062 .85707 244.629 358.682)" fill="#01B3CB"/><ellipse rx="9.055" ry="37.775" transform="matrix(-.87245 -.32714 -.27727 1.02695 221.008 343.316)" fill="#01B3CB"/><ellipse rx="8.658" ry="39.358" transform="matrix(-.92666 .28419 .22105 1.001 193.997 341.715)" fill="#01B3CB"/><ellipse rx="8.74" ry="39.046" transform="matrix(-.62688 .83907 .66403 .68897 171.241 358.824)" fill="#01B3CB"/><ellipse rx="8.988" ry="38.052" transform="matrix(-.35722 1.00216 .83698 .41432 157.238 386.24)" fill="#01B3CB"/><ellipse rx="8.143" ry="37.895" transform="matrix(-.69878 -.71534 -.89392 .44822 264.066 445.806)" fill="#01B3CB"/><ellipse rx="9.185" ry="33.502" transform="matrix(-.90758 -.41988 -.66951 .7428 240.875 429.704)" fill="#01B3CB"/><ellipse rx="9.923" ry="29.625" transform="matrix(-.99997 -.0077 -.01498 .99989 210.103 422.506)" fill="#01B3CB"/><ellipse rx="9.161" ry="33.618" transform="matrix(-.90396 .42762 .6777 .73534 179.262 429.403)" fill="#01B3CB"/><ellipse rx="8.289" ry="37.342" transform="matrix(-.73688 .67602 .8727 .48826 155.786 445.506)" fill="#01B3CB"/><ellipse rx="9.47" ry="44.071" transform="matrix(-.69878 -.71534 -.89392 .44822 274.2 513.607)" fill="#01B3CB"/><ellipse rx="10.682" ry="38.962" transform="matrix(-.90758 -.41988 -.66951 .7428 247.23 494.881)" fill="#01B3CB"/><ellipse rx="11.54" ry="34.452" transform="matrix(-.99997 -.0077 -.01498 .99989 211.443 486.509)" fill="#01B3CB"/><ellipse rx="10.654" ry="39.096" transform="matrix(-.90396 .42762 .6777 .73534 175.576 494.531)" fill="#01B3CB"/><ellipse rx="9.639" ry="43.427" transform="matrix(-.73688 .67602 .8727 .48826 148.274 513.258)" fill="#01B3CB"/><ellipse rx="7.311" ry="27.584" transform="matrix(-.65997 -.69858 -.50774 .914 210.893 289.143)" fill="#01B3CB"/><ellipse rx="6.546" ry="30.735" transform="matrix(-.87624 -.37384 -.17528 1.02083 193.405 276.55)" fill="#01B3CB"/><ellipse rx="5.882" ry="32.987" transform="matrix(-.9422 .33098 .24836 .96944 174.236 275.093)" fill="#01B3CB"/><ellipse rx="6.566" ry="30.661" transform="matrix(-.53158 .90008 .64306 .716 159.045 288.824)" fill="#01B3CB"/><ellipse rx="7.214" ry="28.023" transform="matrix(-.24969 1.00931 .8323 .46265 150.573 310.959)" fill="#01B3CB"/><g opacity=".1" fill="#fff"><ellipse rx="5.371" ry="20.947" transform="matrix(.68077 -.66869 .6062 .85707 379.393 428.322)"/><ellipse rx="5.199" ry="21.687" transform="matrix(.87245 -.32714 .27727 1.02695 392.954 419.499)"/><ellipse rx="4.971" ry="22.595" transform="matrix(.92666 .28419 -.22105 1.001 408.461 418.58)"/><ellipse rx="5.017" ry="22.416" transform="matrix(.62688 .83907 -.66403 .68897 421.525 428.403)"/><ellipse rx="5.16" ry="21.846" transform="matrix(.35722 1.00216 -.83698 .41432 429.564 444.142)"/><ellipse rx="4.675" ry="21.756" transform="matrix(.69878 -.71534 .89392 .44822 368.234 478.339)"/><ellipse rx="5.273" ry="19.234" transform="matrix(.90758 -.41988 .66951 .7428 381.548 469.095)"/><ellipse rx="5.697" ry="17.008" transform="matrix(.99997 -.0077 .01498 .99989 399.215 464.963)"/><ellipse rx="5.259" ry="19.3" transform="matrix(.90396 .42762 -.6777 .73534 416.92 468.922)"/><ellipse rx="4.759" ry="21.438" transform="matrix(.73688 .67602 -.8727 .48826 430.398 478.167)"/><ellipse rx="5.437" ry="25.301" transform="matrix(.69878 -.71534 .89392 .44822 362.416 517.264)"/><ellipse rx="6.133" ry="22.368" transform="matrix(.90758 -.41988 .66951 .7428 377.9 506.513)"/><ellipse rx="6.625" ry="19.779" transform="matrix(.99997 -.0077 .01498 .99989 398.445 501.707)"/><ellipse rx="6.116" ry="22.445" transform="matrix(.90396 .42762 -.6777 .73534 419.037 506.312)"/><ellipse rx="5.534" ry="24.931" transform="matrix(.73688 .67602 -.8727 .48826 434.711 517.063)"/><ellipse rx="4.197" ry="15.836" transform="matrix(.65997 -.69858 .50774 .914 398.761 388.399)"/><ellipse rx="3.758" ry="17.645" transform="matrix(.87624 -.37384 .17528 1.02083 408.801 381.169)"/><ellipse rx="3.377" ry="18.938" transform="matrix(.9422 .33098 -.24836 .96944 419.806 380.333)"/><ellipse rx="3.77" ry="17.603" transform="matrix(.53158 .90008 -.64306 .716 428.527 388.216)"/><ellipse rx="4.141" ry="16.088" transform="matrix(.24969 1.00931 -.8323 .46265 433.391 400.923)"/></g><g opacity=".3" fill="#fff"><ellipse rx="6.227" ry="24.285" transform="matrix(-.68077 -.66869 -.6062 .85707 520.162 390.644)"/><ellipse rx="6.027" ry="25.143" transform="matrix(-.87245 -.32714 -.27727 1.02695 504.44 380.416)"/><ellipse rx="5.763" ry="26.196" transform="matrix(-.92666 .28419 .22105 1.001 486.462 379.35)"/><ellipse rx="5.817" ry="25.988" transform="matrix(-.62688 .83907 .66403 .68897 471.316 390.738)"/><ellipse rx="5.983" ry="25.327" transform="matrix(-.35722 1.00216 .83698 .41432 461.995 408.985)"/><ellipse rx="5.42" ry="25.223" transform="matrix(-.69878 -.71534 -.89392 .44822 533.099 448.632)"/><ellipse rx="6.114" ry="22.299" transform="matrix(-.90758 -.41988 -.66951 .7428 517.663 437.915)"/><ellipse rx="6.605" ry="19.718" transform="matrix(-.99997 -.0077 -.01498 .99989 497.182 433.124)"/><ellipse rx="6.097" ry="22.376" transform="matrix(-.90396 .42762 .6777 .73534 476.654 437.715)"/><ellipse rx="5.517" ry="24.854" transform="matrix(-.73688 .67602 .8727 .48826 461.029 448.432)"/><ellipse rx="6.303" ry="29.333" transform="matrix(-.69878 -.71534 -.89392 .44822 539.844 493.76)"/><ellipse rx="7.11" ry="25.933" transform="matrix(-.90758 -.41988 -.66951 .7428 521.893 481.296)"/><ellipse rx="7.681" ry="22.931" transform="matrix(-.99997 -.0077 -.01498 .99989 498.073 475.724)"/><ellipse rx="7.091" ry="26.022" transform="matrix(-.90396 .42762 .6777 .73534 474.201 481.063)"/><ellipse rx="6.416" ry="28.905" transform="matrix(-.73688 .67602 .8727 .48826 456.029 493.527)"/><ellipse rx="4.866" ry="18.359" transform="matrix(-.65997 -.69858 -.50774 .914 497.708 344.358)"/><ellipse rx="4.357" ry="20.457" transform="matrix(-.87624 -.37384 -.17528 1.02083 486.068 335.977)"/><ellipse rx="3.915" ry="21.956" transform="matrix(-.9422 .33098 .24836 .96944 473.309 335.007)"/><ellipse rx="4.371" ry="20.408" transform="matrix(-.53158 .90008 .64306 .716 463.198 344.146)"/><ellipse rx="4.801" ry="18.651" transform="matrix(-.24969 1.00931 .8323 .46265 457.559 358.879)"/></g><path opacity=".1" d="M436.337 150.367V432h-39.638l39.638-281.633Zm-145.337 0V432h39.637L291 150.367Zm79.97-55.631V432h-40.333L370.97 94.736Z" fill="#fff"/><path opacity=".1" d="M343.85 94.736V432h65.366L343.85 94.736Z" fill="#fff"/><path opacity=".1" d="M318.12 150.367V432h39.638L318.12 150.367Z" fill="#fff"/><path opacity=".1" d="m409.216 85-51.459 347h39.795l11.664-347ZM88 65.367V347h39.637L88 65.367Zm145.337 0V347h-39.638l39.638-281.633Zm-79.97-55.632V347h40.332L153.367 9.735Z" fill="#fff"/><path opacity=".1" d="M180.487 9.735V347H115.12L180.487 9.735Z" fill="#fff"/><path opacity=".1" d="M206.216 65.367V347h-39.637l39.637-281.633ZM115.12 0l51.459 347h-39.795L115.12 0Z" fill="#fff"/><g opacity=".3" stroke="#fff"><path d="m244.214 471.531-.196-.049-.107-.169c-18.376-29.041-44.668-41.149-68.19-42.827-11.767-.839-22.836.932-31.871 4.495-9.043 3.567-16.01 8.911-19.634 15.189-13.161 22.795-10.305 54.198-4.09 80.01 3.103 12.888 7.034 24.345 10.19 32.581a245.12 245.12 0 0 0 3.95 9.71 165.93 165.93 0 0 0 1.473 3.298l.013.027.102.03.24.071.689.2c.816.235 2.018.577 3.557 1.003a489.32 489.32 0 0 0 12.917 3.375c10.815 2.674 25.528 5.952 41.127 8.368 15.603 2.416 32.072 3.966 46.406 3.193 14.36-.773 26.458-3.873 33.439-10.643 10.602-10.281 24.804-31.945 25.501-53.665.347-10.836-2.666-21.682-11.167-31.162-8.51-9.49-22.556-17.653-44.349-23.035Z" fill="url(#b)"/><path d="m275.627 393.791.041.264.243.113c28.203 13.067 37.637 35.377 36.488 56.479-1.151 21.157-12.936 41.071-27.154 49.28-25.669 14.82-58.383 16.107-84.741 13.663-13.17-1.221-24.731-3.372-32.999-5.218a226.405 226.405 0 0 1-9.719-2.383 143.54 143.54 0 0 1-3.232-.914 218.472 218.472 0 0 1-.78-3.902 332.544 332.544 0 0 1-1.947-11.311c-1.471-9.489-3.093-22.443-3.699-36.307-.606-13.868-.194-28.628 2.393-41.736 2.589-13.118 7.344-24.513 15.369-31.731 12.147-10.925 36.734-26.543 59.712-29.876 11.476-1.664 22.493-.257 31.369 6.262 8.876 6.518 15.702 18.213 18.656 37.317Z" fill="url(#c)"/><path d="m366.833 413.017.012.224-.161.158c-25.185 24.749-29.754 53.343-24.063 76.815 5.702 23.52 21.677 41.819 37.493 46.057 28.602 7.664 61.288-2.419 86.896-14.486 12.791-6.028 23.788-12.537 31.588-17.54a251.329 251.329 0 0 0 9.122-6.123c1.062-.749 1.88-1.342 2.431-1.747.276-.202.486-.358.626-.462l.012-.009v-.084l-.007-.975a300 300 0 0 0-.059-3.723c-.07-3.22-.213-7.845-.504-13.462-.584-11.236-1.763-26.439-4.146-42.312-2.384-15.877-5.969-32.405-11.356-46.299-5.395-13.913-12.562-25.093-22.051-30.399-14.381-8.042-42.09-16.989-65.563-12.645-11.715 2.168-22.35 7.642-29.772 18.172-7.427 10.538-11.681 26.203-10.498 48.84Z" fill="url(#d)"/><path d="m295.941 422.505.158.161-.016.225c-2.511 35.219 12.981 59.684 32.778 73.519 19.837 13.864 43.922 17.016 58.585 9.73 26.518-13.176 44.357-42.362 55.575-68.353 5.604-12.982 9.543-25.14 12.082-34.051a251.857 251.857 0 0 0 2.789-10.627 168.348 168.348 0 0 0 .83-3.679l.003-.015-.055-.062a309.046 309.046 0 0 0-3.158-3.48 451.651 451.651 0 0 0-9.285-9.761c-7.871-8.039-18.814-18.659-31.102-28.984-12.292-10.329-25.915-20.35-39.148-27.204-13.249-6.863-26.021-10.505-36.647-8.206-16.103 3.484-42.801 15.108-57.527 33.895-7.351 9.377-11.704 20.518-10.302 33.324 1.402 12.816 8.577 27.377 24.44 43.568Z" fill="url(#e)"/><path d="m330.774 469.855.189.122.217-.06c34.024-9.436 61.073.904 78.554 17.568 17.518 16.699 25.378 39.683 21.14 55.499-7.664 28.601-32.738 51.868-55.993 68.011-11.615 8.063-22.751 14.332-30.984 18.586a252.264 252.264 0 0 1-9.864 4.838 154.493 154.493 0 0 1-3.441 1.543l-.014.006a3.216 3.216 0 0 1-.072-.042c-.19-.111-.473-.276-.841-.493a289.325 289.325 0 0 1-3.195-1.914 448.67 448.67 0 0 1-11.407-7.167c-9.439-6.123-22.015-14.746-34.57-24.747-12.558-10.002-25.079-21.371-34.418-32.984-9.351-11.628-15.45-23.425-15.301-34.296.226-16.474 6.332-44.945 21.831-63.101 7.735-9.062 17.793-15.535 30.623-16.697 12.84-1.164 28.533 2.985 47.546 15.328Z" fill="url(#f)"/><path d="m231.613 383.882.097-.249.262-.058c19.681-4.346 28.747-17.149 30.957-30.656 2.219-13.561-2.475-27.804-10.314-34.964-14.204-12.973-34.774-18.361-51.859-20.492-8.532-1.064-16.174-1.313-21.683-1.296a148.43 148.43 0 0 0-6.503.155c-.765.037-1.358.073-1.758.099l-.316.022-.174.389c-.193.431-.473 1.067-.824 1.885a215.29 215.29 0 0 0-2.816 6.912c-2.261 5.822-5.101 13.822-7.423 22.543-2.323 8.723-4.122 18.148-4.31 26.822-.188 8.685 1.24 16.548 5.299 22.213 6.182 8.628 19.602 21.964 33.697 27.279 7.036 2.654 14.185 3.289 20.684.411 6.496-2.877 12.445-9.311 16.984-21.015Z" fill="url(#g)"/><path d="m267.212 303.987.249.097.219-.154c25.418-17.891 49.457-14.906 67.157-3.36 17.747 11.575 29.1 31.738 29.1 48.156 0 29.64-15.242 58.615-30.538 80.22-7.642 10.794-15.285 19.731-21.018 25.969a227.326 227.326 0 0 1-6.924 7.225 142.602 142.602 0 0 1-2.406 2.342l-.775-.255c-.689-.229-1.702-.57-2.995-1.021-2.587-.9-6.293-2.234-10.769-3.969-8.953-3.471-20.982-8.543-33.292-14.95-12.313-6.41-24.89-14.146-34.948-22.941-10.066-8.801-17.557-18.616-19.795-29.175-3.388-15.982-4.621-45.084 3.982-66.65 4.297-10.771 11.024-19.608 21.108-24.036 10.082-4.427 23.623-4.491 41.645 2.502Z" fill="url(#h)"/></g><path d="M11.487 531.426c-27.247 12.967-54.614 24.317-62.278 43.505 36.496 7.921 54.578-13.101 62.278-43.505 43.165-20.543 86.029-45.147 49.776-111.408-14.186-25.929-19.47-48.508-18.732-68.492 34.892-12.498 83.098-22.022 109.354-44.106 20.612-17.337 19.546-72.239 5.071-130.541-.665-47.781-40.747-109.84-61.21-135.458 26.741 33.475 48.858 85.705 61.21 135.458a83.963 83.963 0 0 1-.027 3.624c-1.432 48.706-111.291 86.872-114.398 171.023-28.568 10.232-48.21 22.459-39.569 45.205 8.062 21.221 20.175 88.696 8.525 134.695Z" fill="url(#i)"/><path d="M-5.95 464.901c25.895 9.584 51.999 17.772 58.402 33.804-36.119 8.865-52.6-8.149-58.403-33.804-41.024-15.182-81.523-33.866-42.336-92.781 19.077-28.68 27.803-52.356 30.057-72.484-15.168-6.861-33.455-14.19-50.153-26.136-14.924-10.677-4.449-34.509 17.233-63.428-9.753-14.101-17.714-27.277-17.233-42.03 1.346-41.297 111.701-61.81 133.7-85.542-35.3 38.08-86.551 87.669-116.467 127.572 16.225 23.46 37.409 49.477 32.92 89.564 25.158 11.379 41.734 21.469 28.244 49.198C.933 367.501-14.73 426.089-5.95 464.901Z" fill="url(#j)"/><path d="M9.973 486.303c20.493 22.149 41.698 42.84 41.698 63.501-36.83-6.181-45.825-32.41-41.698-63.501-32.466-35.089-63.146-73.836-4.901-121.924 30.33-25.041 43.817-50.419 47.432-75.273-15.72-19.724-35.115-40.866-47.432-63.877-9.002-16.817-7.108-46.955 3.182-80.344C3.121 130.54 1 117.602 5.072 106.466 21.64 61.161 84.247 16.612 113.479 0 63.492 28.406 24.895 90.895 8.254 144.885c14.307 39.978 52.007 90.892 44.25 144.221 21.863 27.431 36.619 52.118 15.347 75.273-15.358 16.717-51.635 74.885-57.878 121.924Z" fill="url(#k)"/><path d="M53.361 565.298s-176.129-21.846-133.068-137.284c8.604-23.067 10.359-42.562 7.191-59.279-25.915 3.698-60.829 18.578-92.697-1.212-17.734-11.013-29.359-52.865-33.439-103.707-27.155-13.226-48.71-26.123-51.831-43.985-8.304-47.519 65.46-132.58 82.47-161.582-27.389 46.698-36.315 134.833-30.639 205.567 48.712 23.725 115.447 48.51 126.136 104.919 17.192-2.453 30.423.014 36.178 20.788 9.994 36.08-70.141 79.73 89.7 175.775Z" fill="url(#l)"/><path d="M-44.996 531.417s155.734 43.379 127.869-63.952c-5.569-21.447-5.454-37.666-1.273-49.959 22.33 11.919 51.577 35.902 81.093 31.068 16.426-2.691 30.12-32.19 37.982-71.496 24.844-1.207 44.767-4.085 49.004-17.311 11.271-35.186-45.987-128.801-58.397-157.906 19.983 46.864 20.331 120.532 9.393 175.217-44.566 2.163-104.968-1.053-119.075 40.428-14.813-7.906-26.582-10.503-33.366 4.144-11.782 25.441 54.543 88.094-93.23 109.767Z" fill="url(#m)"/><path d="M676.067 560.625c17.413 8.287 34.903 15.54 39.8 27.803-23.323 5.062-34.879-8.372-39.8-27.803-27.586-13.129-54.98-28.853-31.811-71.199 9.066-16.571 12.443-31 11.971-43.772-22.299-7.987-53.106-14.074-69.886-28.187-13.173-11.08-12.491-46.167-3.241-83.427.425-30.536 26.041-70.197 39.119-86.568-17.09 21.393-31.225 54.772-39.119 86.568a54.08 54.08 0 0 0 .017 2.317c.916 31.127 71.125 55.518 73.11 109.297 18.257 6.539 30.81 14.353 25.288 28.89-5.152 13.562-12.893 56.684-5.448 86.081Z" fill="url(#n)"/><path d="M687.211 518.11c-16.549 6.125-33.232 11.358-37.324 21.603 23.082 5.666 33.615-5.208 37.324-21.603 26.218-9.703 52.1-21.643 27.056-59.295-12.192-18.329-17.768-33.459-19.209-46.323 9.694-4.384 21.381-9.068 32.052-16.703 9.538-6.823 2.843-22.054-11.013-40.536 6.233-9.011 11.321-17.432 11.013-26.86-.86-26.392-71.386-39.502-85.445-54.669 22.559 24.337 55.313 56.028 74.432 81.529-10.369 14.993-23.907 31.62-21.039 57.239-16.078 7.272-26.671 13.72-18.05 31.441 5.804 11.93 15.814 49.373 10.203 74.177Z" fill="url(#o)"/><path d="M677.035 531.787c-13.097 14.155-26.649 27.379-26.649 40.583 23.538-3.95 29.286-20.712 26.649-40.583 20.748-22.424 40.355-47.187 3.132-77.919-19.383-16.003-28.003-32.222-30.313-48.105 10.046-12.606 22.441-26.117 30.313-40.823 5.753-10.748 4.543-30.008-2.034-51.346 3.281-9.168 4.637-17.437 2.034-24.553-10.589-28.954-50.6-57.425-69.281-68.041 31.946 18.154 56.612 58.09 67.247 92.594-9.143 25.549-33.236 58.087-28.279 92.169-13.972 17.53-23.403 33.308-9.808 48.105 9.815 10.684 32.999 47.858 36.989 77.919Z" fill="url(#p)"/><path d="M649.306 582.272s112.561-13.962 85.042-87.736c-5.499-14.742-6.621-27.2-4.596-37.884 16.562 2.363 38.874 11.873 59.241-.775 11.334-7.038 18.762-33.785 21.37-66.277 17.355-8.453 31.13-16.694 33.124-28.11 5.307-30.369-41.834-84.729-52.705-103.264 17.504 29.844 23.209 86.169 19.581 131.374-31.131 15.162-73.78 31.002-80.611 67.052-10.987-1.568-19.443.009-23.121 13.285-6.387 23.058 44.826 50.955-57.325 112.335Z" fill="url(#q)"/><path d="M712.164 560.619s-99.526 27.723-81.718-40.87c3.558-13.707 3.485-24.072.813-31.928-14.271 7.617-32.962 22.944-51.825 19.855-10.498-1.72-19.249-20.572-24.274-45.692-15.877-.771-28.609-2.611-31.317-11.063-7.204-22.487 29.389-82.315 37.32-100.915-12.77 29.95-12.993 77.029-6.003 111.978 28.481 1.383 67.083-.673 76.099 25.837 9.467-5.053 16.988-6.713 21.324 2.648 7.529 16.259-34.858 56.3 59.581 70.15Z" fill="url(#r)"/><path opacity=".1" d="M698 108v405h-57l57-405Zm-209 0v405h57l-57-405Zm115-80v485h-58l58-485Z" fill="#fff"/><path opacity=".1" d="M565 28v485h94L565 28Z" fill="#fff"/><path opacity=".1" d="M528 108v405h57l-57-405Zm131-94-74 499h57.227L659 14Z" fill="#fff"/></g><defs><linearGradient id="i" x1="195.984" y1="171.71" x2="-57.02" y2="614.955" gradientUnits="userSpaceOnUse"><stop stop-color="#6EDDE4"/><stop offset="1" stop-color="#fff" stop-opacity="0"/></linearGradient><linearGradient id="j" x1="-165.888" y1="166.676" x2="37.664" y2="542.768" gradientUnits="userSpaceOnUse"><stop stop-color="#6EDDE4"/><stop offset="1" stop-color="#fff" stop-opacity="0"/></linearGradient><linearGradient id="k" x1="-27.936" y1="83.814" x2="42.61" y2="589.284" gradientUnits="userSpaceOnUse"><stop stop-color="#fff"/><stop offset="1" stop-color="#fff" stop-opacity="0"/></linearGradient><linearGradient id="l" x1="-248.576" y1="201.541" x2="65.254" y2="604.019" gradientUnits="userSpaceOnUse"><stop stop-color="#fff"/><stop offset="1" stop-color="#fff" stop-opacity="0"/></linearGradient><linearGradient id="m" x1="249.558" y1="344.46" x2="-37.611" y2="583.592" gradientUnits="userSpaceOnUse"><stop stop-color="#fff"/><stop offset="1" stop-color="#fff" stop-opacity="0"/></linearGradient><linearGradient id="n" x1="558.158" y1="330.737" x2="719.849" y2="614.007" gradientUnits="userSpaceOnUse"><stop stop-color="#6EDDE4"/><stop offset="1" stop-color="#fff" stop-opacity="0"/></linearGradient><linearGradient id="o" x1="789.424" y1="327.52" x2="659.337" y2="567.874" gradientUnits="userSpaceOnUse"><stop stop-color="#6EDDE4"/><stop offset="1" stop-color="#fff" stop-opacity="0"/></linearGradient><linearGradient id="p" x1="701.262" y1="274.564" x2="656.177" y2="597.601" gradientUnits="userSpaceOnUse"><stop stop-color="#fff"/><stop offset="1" stop-color="#fff" stop-opacity="0"/></linearGradient><linearGradient id="q" x1="842.268" y1="349.801" x2="641.705" y2="607.018" gradientUnits="userSpaceOnUse"><stop stop-color="#fff"/><stop offset="1" stop-color="#fff" stop-opacity="0"/></linearGradient><linearGradient id="r" x1="523.92" y1="441.138" x2="707.445" y2="593.963" gradientUnits="userSpaceOnUse"><stop stop-color="#fff"/><stop offset="1" stop-color="#fff" stop-opacity="0"/></linearGradient><radialGradient id="b" cx="0" cy="0" r="1" gradientUnits="userSpaceOnUse" gradientTransform="rotate(120 -40.72 311.035) scale(77.61 99.7933)"><stop stop-color="#018496"/><stop offset="1" stop-color="#fff"/></radialGradient><radialGradient id="c" cx="0" cy="0" r="1" gradientUnits="userSpaceOnUse" gradientTransform="matrix(-75.4904 43.5844 -41.75665 -72.32464 239.293 430.277)"><stop stop-color="#018496"/><stop offset="1" stop-color="#fff"/></radialGradient><radialGradient id="d" cx="0" cy="0" r="1" gradientUnits="userSpaceOnUse" gradientTransform="rotate(15 -1470.74 1780.457) scale(87.1688 99.7933)"><stop stop-color="#018496"/><stop offset="1" stop-color="#fff"/></radialGradient><radialGradient id="e" cx="0" cy="0" r="1" gradientUnits="userSpaceOnUse" gradientTransform="matrix(78.06255 -38.78965 44.40749 89.36821 347.567 414.708)"><stop stop-color="#019DB2"/><stop offset="1" stop-color="#fff"/></radialGradient><radialGradient id="f" cx="0" cy="0" r="1" gradientUnits="userSpaceOnUse" gradientTransform="rotate(105 -33.595 388.895) scale(87.1688 99.7933)"><stop stop-color="#01B3CB"/><stop offset="1" stop-color="#fff"/></radialGradient><radialGradient id="g" cx="0" cy="0" r="1" gradientUnits="userSpaceOnUse" gradientTransform="rotate(-137.592 175.884 136.367) scale(56.7332 54.3541)"><stop stop-color="#01C9E5"/><stop offset="1" stop-color="#fff"/></radialGradient><radialGradient id="h" cx="0" cy="0" r="1" gradientUnits="userSpaceOnUse" gradientTransform="matrix(0 87.1688 -83.5133 0 280.643 353.697)"><stop stop-color="#01E0FE"/><stop offset="1" stop-color="#fff"/></radialGradient><clipPath id="a"><path fill="#fff" d="M0 0h685v512H0z"/></clipPath></defs></svg>