<svg width="1440" height="512" fill="none" xmlns="http://www.w3.org/2000/svg"><g clip-path="url(#a)"><ellipse cx="243.496" cy="255.438" rx="15.411" ry="64.212" transform="rotate(-39.811 243.496 255.438)" fill="#fff" fill-opacity=".1"/><ellipse cx="287.403" cy="231.2" rx="15.411" ry="64.212" transform="rotate(-17.65 287.403 231.2)" fill="#fff" fill-opacity=".1"/><ellipse cx="337.611" cy="228.674" rx="15.411" ry="64.212" transform="rotate(14.587 337.611 228.674)" fill="#fff" fill-opacity=".1"/><ellipse cx="379.91" cy="255.662" rx="15.411" ry="64.212" transform="rotate(48.638 379.91 255.662)" fill="#fff" fill-opacity=".1"/><ellipse cx="405.939" cy="298.905" rx="15.411" ry="64.212" transform="rotate(67.215 405.939 298.905)" fill="#fff" fill-opacity=".1"/><ellipse rx="14.01" ry="68.431" transform="matrix(.75494 -.6558 .92017 .39151 207.366 392.861)" fill="#fff" fill-opacity=".1"/><ellipse rx="16.647" ry="57.263" transform="matrix(.93084 -.36543 .7281 .68547 250.474 367.462)" fill="#fff" fill-opacity=".1"/><ellipse rx="18.445" ry="46.73" transform="matrix(.99998 -.00653 .01766 .99984 307.674 356.108)" fill="#fff" fill-opacity=".1"/><ellipse rx="16.587" ry="57.566" transform="matrix(.92802 .37252 -.73566 .67735 365.001 366.988)" fill="#fff" fill-opacity=".1"/><ellipse rx="14.388" ry="67.055" transform="matrix(.78908 .61429 -.90336 .42888 408.638 392.387)" fill="#fff" fill-opacity=".1"/><ellipse rx="16.293" ry="79.582" transform="matrix(.75494 -.6558 .92017 .39151 188.53 499.805)" fill="#fff" fill-opacity=".1"/><ellipse rx="19.36" ry="66.595" transform="matrix(.93084 -.36543 .7281 .68547 238.662 470.267)" fill="#fff" fill-opacity=".1"/><ellipse rx="21.451" ry="54.345" transform="matrix(.99998 -.00653 .01766 .99984 305.183 457.063)" fill="#fff" fill-opacity=".1"/><ellipse rx="19.29" ry="66.947" transform="matrix(.92802 .37252 -.73566 .67735 371.852 469.716)" fill="#fff" fill-opacity=".1"/><ellipse rx="16.733" ry="77.982" transform="matrix(.78908 .61429 -.90336 .42888 422.601 499.254)" fill="#fff" fill-opacity=".1"/><ellipse rx="12.055" ry="47.53" transform="matrix(.74396 -.66823 .54772 .83666 306.204 145.751)" fill="#fff" fill-opacity=".1"/><ellipse rx="11.34" ry="50.493" transform="matrix(.94028 -.34041 .19833 .98014 338.712 125.889)" fill="#fff" fill-opacity=".1"/><ellipse rx="10.749" ry="52.689" transform="matrix(.95833 .28567 -.28902 .95732 374.344 123.591)" fill="#fff" fill-opacity=".1"/><ellipse rx="11.358" ry="50.421" transform="matrix(.57125 .82078 -.72687 .68677 402.581 145.249)" fill="#fff" fill-opacity=".1"/><ellipse rx="11.962" ry="47.934" transform="matrix(.27988 .96003 -.90443 .42662 418.328 180.163)" fill="#fff" fill-opacity=".1"/><ellipse rx="9.355" ry="36.486" transform="matrix(-.68077 -.66869 -.6062 .85707 363.357 358.682)" fill="#01B3CB"/><ellipse rx="9.055" ry="37.775" transform="matrix(-.87245 -.32714 -.27727 1.02695 339.735 343.316)" fill="#01B3CB"/><ellipse rx="8.658" ry="39.358" transform="matrix(-.92666 .28419 .22105 1.001 312.724 341.715)" fill="#01B3CB"/><ellipse rx="8.74" ry="39.046" transform="matrix(-.62688 .83907 .66403 .68897 289.969 358.824)" fill="#01B3CB"/><ellipse rx="8.988" ry="38.052" transform="matrix(-.35722 1.00216 .83698 .41432 275.966 386.24)" fill="#01B3CB"/><ellipse rx="8.143" ry="37.895" transform="matrix(-.69878 -.71534 -.89392 .44822 382.794 445.806)" fill="#01B3CB"/><ellipse rx="9.185" ry="33.502" transform="matrix(-.90758 -.41988 -.66951 .7428 359.603 429.704)" fill="#01B3CB"/><ellipse rx="9.923" ry="29.625" transform="matrix(-.99997 -.0077 -.01498 .99989 328.831 422.505)" fill="#01B3CB"/><ellipse rx="9.161" ry="33.618" transform="matrix(-.90396 .42762 .6777 .73534 297.99 429.403)" fill="#01B3CB"/><ellipse rx="8.289" ry="37.342" transform="matrix(-.73688 .67602 .8727 .48826 274.513 445.506)" fill="#01B3CB"/><ellipse rx="9.47" ry="44.071" transform="matrix(-.69878 -.71534 -.89392 .44822 392.927 513.607)" fill="#01B3CB"/><ellipse rx="10.682" ry="38.962" transform="matrix(-.90758 -.41988 -.66951 .7428 365.957 494.881)" fill="#01B3CB"/><ellipse rx="11.54" ry="34.452" transform="matrix(-.99997 -.0077 -.01498 .99989 330.17 486.509)" fill="#01B3CB"/><ellipse rx="10.654" ry="39.096" transform="matrix(-.90396 .42762 .6777 .73534 294.304 494.531)" fill="#01B3CB"/><ellipse rx="9.639" ry="43.427" transform="matrix(-.73688 .67602 .8727 .48826 267.002 513.258)" fill="#01B3CB"/><ellipse rx="7.311" ry="27.584" transform="matrix(-.65997 -.69858 -.50774 .914 329.621 289.143)" fill="#01B3CB"/><ellipse rx="6.546" ry="30.735" transform="matrix(-.87624 -.37384 -.17528 1.02083 312.132 276.55)" fill="#01B3CB"/><ellipse rx="5.882" ry="32.987" transform="matrix(-.9422 .33098 .24836 .96944 292.963 275.093)" fill="#01B3CB"/><ellipse rx="6.566" ry="30.661" transform="matrix(-.53158 .90008 .64306 .716 277.772 288.824)" fill="#01B3CB"/><ellipse rx="7.214" ry="28.023" transform="matrix(-.24969 1.00931 .8323 .46265 269.301 310.959)" fill="#01B3CB"/><g opacity=".1" fill="#fff"><ellipse rx="5.371" ry="20.947" transform="matrix(.68077 -.66869 .6062 .85707 972.393 428.321)"/><ellipse rx="5.199" ry="21.687" transform="matrix(.87245 -.32714 .27727 1.02695 985.954 419.5)"/><ellipse rx="4.971" ry="22.595" transform="matrix(.92666 .28419 -.22105 1.001 1001.46 418.58)"/><ellipse rx="5.017" ry="22.416" transform="matrix(.62688 .83907 -.66403 .68897 1014.53 428.403)"/><ellipse rx="5.16" ry="21.846" transform="matrix(.35722 1.00216 -.83698 .41432 1022.56 444.142)"/><ellipse rx="4.675" ry="21.756" transform="matrix(.69878 -.71534 .89392 .44822 961.234 478.339)"/><ellipse rx="5.273" ry="19.234" transform="matrix(.90758 -.41988 .66951 .7428 974.548 469.095)"/><ellipse rx="5.697" ry="17.008" transform="matrix(.99997 -.0077 .01498 .99989 992.215 464.963)"/><ellipse rx="5.259" ry="19.3" transform="matrix(.90396 .42762 -.6777 .73534 1009.92 468.922)"/><ellipse rx="4.759" ry="21.438" transform="matrix(.73688 .67602 -.8727 .48826 1023.4 478.167)"/><ellipse rx="5.437" ry="25.301" transform="matrix(.69878 -.71534 .89392 .44822 955.416 517.264)"/><ellipse rx="6.133" ry="22.368" transform="matrix(.90758 -.41988 .66951 .7428 970.9 506.513)"/><ellipse rx="6.625" ry="19.779" transform="matrix(.99997 -.0077 .01498 .99989 991.445 501.707)"/><ellipse rx="6.116" ry="22.445" transform="matrix(.90396 .42762 -.6777 .73534 1012.04 506.312)"/><ellipse rx="5.534" ry="24.931" transform="matrix(.73688 .67602 -.8727 .48826 1027.71 517.063)"/><ellipse rx="4.197" ry="15.836" transform="matrix(.65997 -.69858 .50774 .914 991.761 388.399)"/><ellipse rx="3.758" ry="17.645" transform="matrix(.87624 -.37384 .17528 1.02083 1001.8 381.169)"/><ellipse rx="3.377" ry="18.938" transform="matrix(.9422 .33098 -.24836 .96944 1012.81 380.333)"/><ellipse rx="3.77" ry="17.603" transform="matrix(.53158 .90008 -.64306 .716 1021.53 388.216)"/><ellipse rx="4.141" ry="16.088" transform="matrix(.24969 1.00931 -.8323 .46265 1026.39 400.923)"/></g><g opacity=".3" fill="#fff"><ellipse rx="6.227" ry="24.285" transform="matrix(-.68077 -.66869 -.6062 .85707 1113.16 390.644)"/><ellipse rx="6.027" ry="25.143" transform="matrix(-.87245 -.32714 -.27727 1.02695 1097.44 380.416)"/><ellipse rx="5.763" ry="26.196" transform="matrix(-.92666 .28419 .22105 1.001 1079.46 379.35)"/><ellipse rx="5.817" ry="25.988" transform="matrix(-.62688 .83907 .66403 .68897 1064.32 390.738)"/><ellipse rx="5.983" ry="25.327" transform="matrix(-.35722 1.00216 .83698 .41432 1055 408.985)"/><ellipse rx="5.42" ry="25.223" transform="matrix(-.69878 -.71534 -.89392 .44822 1126.1 448.632)"/><ellipse rx="6.114" ry="22.299" transform="matrix(-.90758 -.41988 -.66951 .7428 1110.66 437.915)"/><ellipse rx="6.605" ry="19.718" transform="matrix(-.99997 -.0077 -.01498 .99989 1090.18 433.124)"/><ellipse rx="6.097" ry="22.376" transform="matrix(-.90396 .42762 .6777 .73534 1069.65 437.715)"/><ellipse rx="5.517" ry="24.854" transform="matrix(-.73688 .67602 .8727 .48826 1054.03 448.432)"/><ellipse rx="6.303" ry="29.333" transform="matrix(-.69878 -.71534 -.89392 .44822 1132.84 493.76)"/><ellipse rx="7.11" ry="25.933" transform="matrix(-.90758 -.41988 -.66951 .7428 1114.89 481.296)"/><ellipse rx="7.681" ry="22.931" transform="matrix(-.99997 -.0077 -.01498 .99989 1091.07 475.724)"/><ellipse rx="7.091" ry="26.022" transform="matrix(-.90396 .42762 .6777 .73534 1067.2 481.063)"/><ellipse rx="6.416" ry="28.905" transform="matrix(-.73688 .67602 .8727 .48826 1049.03 493.527)"/><ellipse rx="4.866" ry="18.359" transform="matrix(-.65997 -.69858 -.50774 .914 1090.71 344.359)"/><ellipse rx="4.357" ry="20.457" transform="matrix(-.87624 -.37384 -.17528 1.02083 1079.07 335.977)"/><ellipse rx="3.915" ry="21.956" transform="matrix(-.9422 .33098 .24836 .96944 1066.31 335.007)"/><ellipse rx="4.371" ry="20.408" transform="matrix(-.53158 .90008 .64306 .716 1056.2 344.147)"/><ellipse rx="4.801" ry="18.651" transform="matrix(-.24969 1.00931 .8323 .46265 1050.56 358.879)"/></g><path opacity=".1" d="M956.337 69.367V351h-39.638l39.638-281.633Zm-145.337 0V351h39.637L811 69.367Zm79.97-55.631V351h-40.333L890.97 13.736Z" fill="#fff"/><path opacity=".1" d="M863.85 13.736V351h65.366L863.85 13.736Z" fill="#fff"/><path opacity=".1" d="M838.12 69.367V351h39.638L838.12 69.367Z" fill="#fff"/><path opacity=".1" d="m929.216 4-51.459 347h39.795L929.216 4ZM481 65.367V347h39.637L481 65.367Zm145.337 0V347h-39.638l39.638-281.633Zm-79.97-55.632V347h40.332L546.367 9.735Z" fill="#fff"/><path opacity=".1" d="M573.487 9.735V347H508.12L573.487 9.735Z" fill="#fff"/><path opacity=".1" d="M599.216 65.367V347h-39.637l39.637-281.633ZM508.12 0l51.459 347h-39.795L508.12 0Z" fill="#fff"/><g opacity=".3" stroke="#fff"><path d="m626.535 474.347-.196-.048-.107-.17c-23.554-37.223-57.259-52.748-87.419-54.899-15.085-1.076-29.279 1.194-40.869 5.765-11.597 4.574-20.547 11.434-25.208 19.507-16.88 29.238-13.21 69.493-5.252 102.547 3.975 16.51 9.011 31.185 13.053 41.735a315.537 315.537 0 0 0 5.059 12.437 204.24 204.24 0 0 0 1.488 3.357c.175.383.309.674.4.869l.043.093.191.056.419.123.772.224c1.045.302 2.584.74 4.556 1.285a625.865 625.865 0 0 0 16.543 4.322c13.849 3.425 32.692 7.623 52.67 10.716 19.982 3.094 41.08 5.081 59.447 4.091 18.393-.991 33.928-4.961 42.905-13.666 13.59-13.179 31.8-40.95 32.693-68.809.446-13.906-3.421-27.829-14.333-39.998-10.921-12.178-28.934-22.641-56.855-29.537Z" fill="url(#b)"/><path d="m666.861 374.924.041.265.243.113c36.166 16.755 48.274 45.377 46.8 72.45-1.476 27.128-16.585 52.673-34.838 63.211-32.904 18.997-74.827 20.643-108.585 17.512-16.869-1.564-31.678-4.319-42.269-6.683a291.282 291.282 0 0 1-12.45-3.054 186.698 186.698 0 0 1-4.209-1.19l-.012-.004-.014-.066a266.321 266.321 0 0 1-1.003-5.015 422.763 422.763 0 0 1-2.493-14.487c-1.885-12.153-3.962-28.744-4.738-46.503-.776-17.762-.25-36.672 3.066-53.471 3.318-16.808 9.414-31.434 19.722-40.705 15.565-13.999 47.07-34.015 76.528-38.287 14.717-2.135 28.864-.333 40.269 8.042 11.403 8.375 20.156 23.389 23.942 47.872Z" fill="url(#c)"/><path d="m783.361 399.57.012.225-.161.157c-32.283 31.724-38.145 68.388-30.848 98.486 7.309 30.147 27.79 53.63 48.106 59.073 36.672 9.827 78.563-3.102 111.357-18.556 16.384-7.72 30.47-16.058 40.461-22.467a322.744 322.744 0 0 0 11.685-7.843 209.397 209.397 0 0 0 3.917-2.831 3.37 3.37 0 0 0 .072-.054l-.001-.177a398.312 398.312 0 0 0-.084-6.019 577.218 577.218 0 0 0-.646-17.24c-.747-14.39-2.258-33.86-5.31-54.19-3.052-20.333-7.644-41.507-14.548-59.311-6.91-17.821-16.102-32.175-28.296-38.994-18.429-10.305-53.942-21.776-84.039-16.205-15.028 2.781-28.681 9.805-38.209 23.323-9.534 13.527-14.984 33.62-13.468 62.623Z" fill="url(#d)"/><path d="m692.633 411.81.157.161-.016.224c-3.219 45.147 16.643 76.518 42.028 94.259 25.426 17.77 56.32 21.828 75.155 12.469 34-16.895 56.858-54.304 71.224-87.589 7.178-16.63 12.224-32.202 15.475-43.616a321.558 321.558 0 0 0 3.573-13.613 206.766 206.766 0 0 0 1.064-4.714l.019-.088a376.712 376.712 0 0 0-4.163-4.59 579.22 579.22 0 0 0-11.891-12.501c-10.081-10.295-24.095-23.896-39.834-37.121-15.742-13.227-33.194-26.065-50.15-34.848-16.972-8.792-33.362-13.474-47.016-10.519-20.637 4.465-54.856 19.36-73.739 43.45-9.428 12.028-15.019 26.328-13.219 42.768 1.8 16.451 11.007 35.123 31.333 55.868Z" fill="url(#e)"/><path d="m737.408 472.22.189.122.217-.06c43.615-12.096 78.298 1.159 100.715 22.528 22.453 21.403 32.549 50.882 27.106 71.197-9.826 36.672-41.968 66.487-71.749 87.16-14.878 10.329-29.142 18.359-39.687 23.807a323.034 323.034 0 0 1-12.635 6.198 208.314 208.314 0 0 1-3.496 1.579c-.401.176-.708.309-.914.397l-.083.036a373.041 373.041 0 0 1-5.323-3.172 575.254 575.254 0 0 1-14.608-9.179c-12.088-7.842-28.195-18.885-44.275-31.693-16.083-12.811-32.123-27.374-44.09-42.255-11.979-14.895-19.814-30.033-19.623-44.002.29-21.113 8.113-57.603 27.986-80.883 9.923-11.624 22.832-19.936 39.303-21.428 16.482-1.493 36.607 3.834 60.967 19.648Z" fill="url(#f)"/><path d="m610.498 362.31.097-.25.262-.058c25.258-5.577 36.907-22.017 39.745-39.365 2.848-17.402-3.172-35.69-13.25-44.894-18.218-16.64-44.592-23.543-66.476-26.273-10.933-1.363-20.723-1.683-27.781-1.662-3.528.011-6.372.107-8.333.2-.98.047-1.74.093-2.254.127l-.488.034-.258.574c-.246.553-.605 1.368-1.055 2.416a278.42 278.42 0 0 0-3.608 8.854c-2.896 7.458-6.534 17.707-9.509 28.879-2.975 11.174-5.281 23.254-5.523 34.376-.241 11.132 1.588 21.237 6.811 28.526 7.925 11.059 25.127 28.159 43.21 34.978 9.03 3.405 18.224 4.227 26.589.522 8.364-3.703 16.001-11.978 21.821-26.984Z" fill="url(#g)"/><path d="m655.998 259.831.25.097.219-.154c32.594-22.942 63.435-19.117 86.144-4.305 22.755 14.843 37.323 40.7 37.323 61.776 0 37.995-19.536 75.124-39.126 102.794-9.789 13.827-19.58 25.274-26.923 33.264a291.58 291.58 0 0 1-8.869 9.256 190.475 190.475 0 0 1-3.136 3.05l-.009.008a1.685 1.685 0 0 0-.065-.021c-.227-.074-.565-.184-1.006-.331a286.14 286.14 0 0 1-3.838-1.307 428.854 428.854 0 0 1-13.792-5.085c-11.467-4.445-26.874-10.941-42.642-19.148-15.771-8.209-31.884-18.121-44.774-29.391-12.898-11.278-22.516-23.871-25.391-37.432-4.341-20.48-5.923-57.772 5.106-85.42 5.51-13.812 14.144-25.163 27.1-30.852 12.954-5.688 30.333-5.761 53.429 3.201Z" fill="url(#h)"/></g><path d="M145.17 531.426c-27.247 12.967-54.614 24.317-62.278 43.505 36.496 7.921 54.578-13.101 62.278-43.505 43.165-20.543 86.029-45.147 49.776-111.408-14.186-25.929-19.47-48.508-18.732-68.492 34.892-12.498 83.098-22.022 109.354-44.106 20.612-17.337 19.546-72.239 5.071-130.541-.665-47.781-40.747-109.84-61.211-135.458 26.742 33.476 48.858 85.705 61.211 135.458a83.963 83.963 0 0 1-.027 3.624c-1.432 48.706-111.291 86.872-114.398 171.023-28.568 10.232-48.21 22.459-39.569 45.205 8.061 21.221 20.174 88.696 8.525 134.695Z" fill="url(#i)"/><path d="M127.732 464.901c25.896 9.584 52 17.772 58.403 33.803-36.118 8.866-52.6-8.149-58.403-33.803-41.023-15.182-81.523-33.866-42.336-92.781 19.077-28.68 27.803-52.356 30.057-72.484-15.167-6.861-33.454-14.19-50.153-26.136-14.924-10.677-4.449-34.509 17.233-63.428-9.753-14.101-17.714-27.277-17.233-42.03 1.347-41.297 111.701-61.81 133.7-85.542-35.3 38.08-86.551 87.669-116.467 127.572 16.225 23.46 37.409 49.477 32.92 89.564 25.158 11.379 41.735 21.469 28.244 49.198-9.081 18.667-24.744 77.255-15.965 116.067Z" fill="url(#j)"/><path d="M143.656 486.303c20.493 22.149 41.698 42.84 41.698 63.501-36.831-6.181-45.825-32.41-41.698-63.501-32.466-35.089-63.146-73.836-4.901-121.924 30.33-25.041 43.817-50.419 47.432-75.273-15.72-19.724-35.115-40.866-47.432-63.877-9.002-16.817-7.109-46.955 3.182-80.344-5.134-14.345-7.255-27.283-3.182-38.419C155.323 61.161 217.93 16.612 247.162 0c-49.988 28.406-88.584 90.895-105.225 144.885 14.306 39.978 52.006 90.892 44.25 144.221 21.863 27.431 36.619 52.118 15.347 75.273-15.358 16.717-51.635 74.885-57.878 121.924Z" fill="url(#k)"/><path d="M187.044 565.298S10.915 543.452 53.976 428.014c8.604-23.067 10.359-42.562 7.191-59.279-25.915 3.698-60.829 18.578-92.697-1.212-17.734-11.013-29.359-52.865-33.439-103.707-27.155-13.226-48.71-26.123-51.831-43.985-8.304-47.519 65.46-132.58 82.47-161.582-27.39 46.698-36.315 134.833-30.639 205.567 48.712 23.725 115.447 48.51 126.136 104.919 17.192-2.453 30.423.014 36.177 20.788 9.995 36.08-70.14 79.73 89.7 175.775Z" fill="url(#l)"/><path d="M88.687 531.417s155.733 43.379 127.868-63.952c-5.568-21.447-5.453-37.666-1.272-49.959 22.329 11.919 51.577 35.902 81.093 31.068 16.426-2.69 30.12-32.19 37.982-71.496 24.844-1.207 44.767-4.085 49.004-17.311 11.271-35.186-45.987-128.801-58.398-157.906 19.983 46.865 20.332 120.532 9.394 175.217-44.566 2.164-104.968-1.053-119.075 40.428-14.813-7.906-26.582-10.503-33.366 4.144-11.782 25.441 54.543 88.095-93.23 109.767Z" fill="url(#m)"/><path d="M1349.91 560.948c17.3 8.235 34.68 15.443 39.55 27.629-23.18 5.031-34.66-8.32-39.55-27.629-27.42-13.047-54.64-28.673-31.62-70.755 9.01-16.467 12.37-30.807 11.9-43.499-22.16-7.937-52.78-13.986-69.45-28.011-13.09-11.011-12.41-45.878-3.22-82.905.42-30.346 25.88-69.76 38.87-86.029-16.98 21.26-31.03 54.431-38.87 86.029-.01.773-.01 1.54.02 2.301.91 30.933 70.68 55.172 72.65 108.615 18.14 6.499 30.62 14.264 25.13 28.71-5.12 13.477-12.81 56.33-5.41 85.544Z" fill="url(#n)"/><path d="M1360.98 518.698c-16.45 6.087-33.02 11.287-37.09 21.469 22.94 5.63 33.4-5.176 37.09-21.469 26.05-9.642 51.77-21.508 26.89-58.924-12.12-18.215-17.66-33.251-19.09-46.035 9.63-4.357 21.25-9.011 31.85-16.598 9.48-6.781 2.83-21.916-10.94-40.283 6.19-8.955 11.25-17.324 10.94-26.693-.85-26.227-70.94-39.255-84.91-54.327 22.42 24.184 54.97 55.678 73.97 81.02-10.31 14.899-23.76 31.423-20.91 56.881-15.98 7.227-26.51 13.635-17.94 31.246 5.77 11.855 15.72 49.064 10.14 73.713Z" fill="url(#o)"/><path d="M1350.87 532.29c-13.02 14.067-26.48 27.208-26.48 40.33 23.39-3.926 29.1-20.584 26.48-40.33 20.62-22.284 40.1-46.893 3.11-77.433-19.26-15.903-27.83-32.021-30.12-47.805 9.98-12.527 22.3-25.954 30.12-40.568 5.72-10.68 4.51-29.821-2.02-51.025 3.26-9.111 4.61-17.328 2.02-24.4-10.52-28.773-50.28-57.066-68.85-67.616 31.75 18.04 56.26 57.727 66.83 92.016-9.09 25.389-33.03 57.724-28.1 91.593-13.89 17.421-23.26 33.1-9.75 47.805 9.75 10.617 32.79 47.56 36.76 77.433Z" fill="url(#p)"/><path d="M1323.31 582.459s111.86-13.874 84.51-87.187c-5.46-14.65-6.58-27.031-4.56-37.648 16.45 2.349 38.63 11.798 58.87-.77 11.26-6.994 18.64-33.574 21.23-65.864 17.25-8.399 30.94-16.59 32.92-27.934 5.27-30.179-41.57-84.201-52.38-102.62 17.4 29.658 23.07 85.632 19.46 130.554-30.93 15.068-73.32 30.809-80.1 66.634-10.92-1.558-19.33.009-22.98 13.202-6.35 22.914 44.54 50.636-56.97 111.633Z" fill="url(#q)"/><path d="M1385.78 560.942s-98.91 27.55-81.21-40.615c3.54-13.621 3.46-23.922.81-31.729-14.18 7.569-32.76 22.801-51.5 19.731-10.44-1.709-19.13-20.444-24.13-45.407-15.77-.766-28.43-2.594-31.12-10.994-7.16-22.346 29.21-81.8 37.09-100.285-12.69 29.764-12.91 76.549-5.97 111.279 28.31 1.374 66.67-.668 75.63 25.676 9.4-5.021 16.88-6.671 21.19 2.632 7.48 16.157-34.64 55.948 59.21 69.712Z" fill="url(#r)"/><path opacity=".1" d="M1154 116v405h-57l57-405Zm-209 0v405h57l-57-405Zm115-80v485h-58l58-485Z" fill="#fff"/><path opacity=".1" d="M1021 36v485h94l-94-485Z" fill="#fff"/><path opacity=".1" d="M984 116v405h57l-57-405Zm131-94-74 499h57.23L1115 22Zm248 214.932V521h-57l57-284.068Zm-209 0V521h57l-57-284.068Zm115-56.112V521h-58l58-340.18Z" fill="#fff"/><path opacity=".1" d="M1230 180.82V521h94l-94-340.18Z" fill="#fff"/><path opacity=".1" d="M1193 236.932V521h57l-57-284.068ZM1324 171l-74 350h57.23L1324 171Z" fill="#fff"/></g><defs><linearGradient id="i" x1="329.667" y1="171.71" x2="76.663" y2="614.955" gradientUnits="userSpaceOnUse"><stop stop-color="#6EDDE4"/><stop offset="1" stop-color="#fff" stop-opacity="0"/></linearGradient><linearGradient id="j" x1="-32.204" y1="166.676" x2="171.347" y2="542.768" gradientUnits="userSpaceOnUse"><stop stop-color="#6EDDE4"/><stop offset="1" stop-color="#fff" stop-opacity="0"/></linearGradient><linearGradient id="k" x1="105.747" y1="83.814" x2="176.293" y2="589.284" gradientUnits="userSpaceOnUse"><stop stop-color="#fff"/><stop offset="1" stop-color="#fff" stop-opacity="0"/></linearGradient><linearGradient id="l" x1="-114.893" y1="201.541" x2="198.937" y2="604.019" gradientUnits="userSpaceOnUse"><stop stop-color="#fff"/><stop offset="1" stop-color="#fff" stop-opacity="0"/></linearGradient><linearGradient id="m" x1="383.241" y1="344.46" x2="96.072" y2="583.592" gradientUnits="userSpaceOnUse"><stop stop-color="#fff"/><stop offset="1" stop-color="#fff" stop-opacity="0"/></linearGradient><linearGradient id="n" x1="1232.73" y1="332.495" x2="1393.41" y2="613.996" gradientUnits="userSpaceOnUse"><stop stop-color="#6EDDE4"/><stop offset="1" stop-color="#fff" stop-opacity="0"/></linearGradient><linearGradient id="o" x1="1462.55" y1="329.298" x2="1333.28" y2="568.151" gradientUnits="userSpaceOnUse"><stop stop-color="#6EDDE4"/><stop offset="1" stop-color="#fff" stop-opacity="0"/></linearGradient><linearGradient id="p" x1="1374.94" y1="276.672" x2="1330.14" y2="597.693" gradientUnits="userSpaceOnUse"><stop stop-color="#fff"/><stop offset="1" stop-color="#fff" stop-opacity="0"/></linearGradient><linearGradient id="q" x1="1515.07" y1="351.44" x2="1315.76" y2="607.051" gradientUnits="userSpaceOnUse"><stop stop-color="#fff"/><stop offset="1" stop-color="#fff" stop-opacity="0"/></linearGradient><linearGradient id="r" x1="1198.71" y1="442.207" x2="1381.09" y2="594.078" gradientUnits="userSpaceOnUse"><stop stop-color="#fff"/><stop offset="1" stop-color="#fff" stop-opacity="0"/></linearGradient><radialGradient id="b" cx="0" cy="0" r="1" gradientUnits="userSpaceOnUse" gradientTransform="matrix(-49.6856 86.05798 -110.6564 -63.8875 580.498 513.262)"><stop stop-color="#018496"/><stop offset="1" stop-color="#fff"/></radialGradient><radialGradient id="c" cx="0" cy="0" r="1" gradientUnits="userSpaceOnUse" gradientTransform="rotate(150 253.608 293.923) scale(111.61 106.93)"><stop stop-color="#018496"/><stop offset="1" stop-color="#fff"/></radialGradient><radialGradient id="d" cx="0" cy="0" r="1" gradientUnits="userSpaceOnUse" gradientTransform="matrix(107.80698 28.8868 -33.0706 123.42117 839.671 435.805)"><stop stop-color="#018496"/><stop offset="1" stop-color="#fff"/></radialGradient><radialGradient id="e" cx="0" cy="0" r="1" gradientUnits="userSpaceOnUse" gradientTransform="rotate(-26.423 1235.033 -1415.335) scale(111.61 127.775)"><stop stop-color="#019DB2"/><stop offset="1" stop-color="#fff"/></radialGradient><radialGradient id="f" cx="0" cy="0" r="1" gradientUnits="userSpaceOnUse" gradientTransform="rotate(105 163.483 553.706) scale(111.61 127.775)"><stop stop-color="#01B3CB"/><stop offset="1" stop-color="#fff"/></radialGradient><radialGradient id="g" cx="0" cy="0" r="1" gradientUnits="userSpaceOnUse" gradientTransform="matrix(-53.63515 -48.98935 46.93491 -51.38588 587.538 326.139)"><stop stop-color="#01C9E5"/><stop offset="1" stop-color="#fff"/></radialGradient><radialGradient id="h" cx="0" cy="0" r="1" gradientUnits="userSpaceOnUse" gradientTransform="matrix(0 111.61 -106.93 0 673.144 323.61)"><stop stop-color="#01E0FE"/><stop offset="1" stop-color="#fff"/></radialGradient><clipPath id="a"><path fill="#fff" d="M0 0h1440v512H0z"/></clipPath></defs></svg>